<svg xmlns="http://www.w3.org/2000/svg" xmlns:xlink="http://www.w3.org/1999/xlink" viewBox="0 0 442.49 318.26"><defs><style>.cls-1{isolation:isolate;}.cls-2{fill:#dadef7;}.cls-3{fill:url(#linear-gradient);}.cls-4{fill:#fff;}.cls-5{fill:url(#linear-gradient-2);}.cls-6{fill:url(#linear-gradient-3);}.cls-7{fill:url(#linear-gradient-4);}.cls-8{fill:url(#linear-gradient-5);}.cls-9{fill:url(#linear-gradient-6);}.cls-10{fill:url(#linear-gradient-7);}.cls-11{fill:url(#linear-gradient-8);}.cls-12{fill:url(#linear-gradient-9);}.cls-13{fill:url(#linear-gradient-10);}.cls-14{fill:url(#linear-gradient-11);}.cls-15{fill:url(#linear-gradient-12);}.cls-16{fill:url(#linear-gradient-13);}.cls-17{fill:url(#linear-gradient-14);}.cls-18{fill:url(#linear-gradient-15);}.cls-19{fill:url(#linear-gradient-16);}.cls-20{fill:url(#linear-gradient-17);}.cls-21{fill:url(#linear-gradient-18);}.cls-22{fill:url(#linear-gradient-19);}.cls-23{fill:url(#linear-gradient-20);}.cls-24{fill:url(#linear-gradient-21);}.cls-25{fill:url(#linear-gradient-22);}.cls-26{fill:url(#linear-gradient-23);}.cls-27{fill:url(#linear-gradient-24);}.cls-28{fill:url(#linear-gradient-25);}.cls-29{fill:url(#linear-gradient-26);}.cls-30{fill:#f0c6ae;}.cls-31{fill:url(#linear-gradient-27);}.cls-32{fill:#ad8651;}.cls-33{fill:#e5ac8f;}.cls-34{fill:url(#linear-gradient-28);}.cls-35{fill:#d78679;}.cls-36{fill:url(#linear-gradient-29);}.cls-37{fill:url(#linear-gradient-30);}.cls-38{fill:url(#linear-gradient-31);}.cls-39{fill:url(#linear-gradient-32);}.cls-40,.cls-42{fill:#cfd1d2;}.cls-40,.cls-41,.cls-52{mix-blend-mode:multiply;}.cls-43{fill:url(#linear-gradient-33);}.cls-44{fill:url(#linear-gradient-34);}.cls-45{fill:#212f47;}.cls-46{fill:url(#linear-gradient-35);}.cls-47{fill:#636bec;}.cls-48{fill:#babcbe;}.cls-49{fill:#919395;}.cls-50{fill:#f8fafb;}.cls-51{fill:#868aeb;}.cls-52{fill:#e5e5e6;}.cls-53{fill:url(#linear-gradient-36);}.cls-54{fill:url(#linear-gradient-37);}.cls-55{fill:#e1b29b;}.cls-56{fill:#434244;}.cls-57{fill:#d5bb95;}.cls-58{fill:url(#linear-gradient-38);}.cls-59{fill:url(#linear-gradient-39);}.cls-60{fill:url(#linear-gradient-40);}.cls-61{fill:url(#linear-gradient-41);}.cls-62{fill:url(#linear-gradient-42);}.cls-63{fill:url(#linear-gradient-43);}.cls-64{fill:url(#linear-gradient-44);}.cls-65{fill:url(#linear-gradient-45);}.cls-66{fill:url(#linear-gradient-46);}.cls-67{fill:url(#linear-gradient-47);}.cls-68{fill:none;}.cls-69{fill:#4e499f;}.cls-70{fill:url(#linear-gradient-48);}.cls-71{fill:url(#linear-gradient-49);}.cls-72{fill:url(#linear-gradient-50);}.cls-73{fill:url(#linear-gradient-51);}.cls-74{fill:#294268;}.cls-75{fill:url(#linear-gradient-52);}</style><linearGradient id="linear-gradient" x1="254.56" y1="107.94" x2="254.56" y2="8.74" gradientUnits="userSpaceOnUse"><stop offset="0" stop-color="#fff"/><stop offset="1" stop-color="#dadef7"/></linearGradient><linearGradient id="linear-gradient-2" x1="-193.44" y1="-378.31" x2="-193.44" y2="-439.57" gradientTransform="translate(121.64 572.33) rotate(16.39)" xlink:href="#linear-gradient"/><linearGradient id="linear-gradient-3" x1="348.5" y1="545.34" x2="348.5" y2="424.36" gradientTransform="translate(-132.05 -261.44) rotate(-19.83)" xlink:href="#linear-gradient"/><linearGradient id="linear-gradient-4" x1="205.19" y1="487.04" x2="205.19" y2="366.05" gradientTransform="matrix(-0.94, -0.34, -0.34, 0.94, 442.52, -261.44)" xlink:href="#linear-gradient"/><linearGradient id="linear-gradient-5" x1="222.98" y1="97.66" x2="222.98" y2="292.31" gradientUnits="userSpaceOnUse"><stop offset="0" stop-color="#efcf64"/><stop offset="0.37" stop-color="#e38378"/><stop offset="1" stop-color="#4136eb"/></linearGradient><linearGradient id="linear-gradient-6" x1="52.38" y1="261.55" x2="52.38" y2="290.49" gradientUnits="userSpaceOnUse"><stop offset="0" stop-color="#98d9fd"/><stop offset="0.14" stop-color="#92ccfd"/><stop offset="0.41" stop-color="#83abfc"/><stop offset="0.75" stop-color="#6a76fb"/><stop offset="1" stop-color="#574cfa"/></linearGradient><linearGradient id="linear-gradient-7" x1="52.89" y1="268.26" x2="52.89" y2="290.49" gradientUnits="userSpaceOnUse"><stop offset="0" stop-color="#5f76fa"/><stop offset="1" stop-color="#2c009a"/></linearGradient><linearGradient id="linear-gradient-8" x1="35.16" y1="230.92" x2="35.16" y2="290.49" xlink:href="#linear-gradient-6"/><linearGradient id="linear-gradient-9" x1="36.22" y1="240.79" x2="36.22" y2="290.49" xlink:href="#linear-gradient-7"/><linearGradient id="linear-gradient-10" x1="27.14" y1="249.59" x2="27.14" y2="290.49" xlink:href="#linear-gradient-6"/><linearGradient id="linear-gradient-11" x1="27.13" y1="258.43" x2="27.13" y2="290.49" xlink:href="#linear-gradient-7"/><linearGradient id="linear-gradient-12" x1="20.04" y1="263.22" x2="20.04" y2="290.49" xlink:href="#linear-gradient-6"/><linearGradient id="linear-gradient-13" x1="19.45" y1="269.25" x2="19.45" y2="290.49" xlink:href="#linear-gradient-7"/><linearGradient id="linear-gradient-14" x1="46.66" y1="246.12" x2="46.66" y2="290.49" xlink:href="#linear-gradient-6"/><linearGradient id="linear-gradient-15" x1="46.94" y1="254.51" x2="46.94" y2="290.49" xlink:href="#linear-gradient-7"/><linearGradient id="linear-gradient-16" x1="434.67" y1="261.49" x2="434.67" y2="290.43" xlink:href="#linear-gradient-6"/><linearGradient id="linear-gradient-17" x1="435.18" y1="268.2" x2="435.18" y2="290.43" xlink:href="#linear-gradient-7"/><linearGradient id="linear-gradient-18" x1="417.45" y1="230.86" x2="417.45" y2="290.43" xlink:href="#linear-gradient-6"/><linearGradient id="linear-gradient-19" x1="418.5" y1="240.73" x2="418.5" y2="290.43" xlink:href="#linear-gradient-7"/><linearGradient id="linear-gradient-20" x1="409.42" y1="249.53" x2="409.42" y2="290.43" xlink:href="#linear-gradient-6"/><linearGradient id="linear-gradient-21" x1="409.41" y1="258.37" x2="409.41" y2="290.43" xlink:href="#linear-gradient-7"/><linearGradient id="linear-gradient-22" x1="402.33" y1="263.16" x2="402.33" y2="290.43" xlink:href="#linear-gradient-6"/><linearGradient id="linear-gradient-23" x1="401.73" y1="269.19" x2="401.73" y2="290.43" xlink:href="#linear-gradient-7"/><linearGradient id="linear-gradient-24" x1="428.95" y1="246.06" x2="428.95" y2="290.43" xlink:href="#linear-gradient-6"/><linearGradient id="linear-gradient-25" x1="429.22" y1="254.45" x2="429.22" y2="290.43" xlink:href="#linear-gradient-7"/><linearGradient id="linear-gradient-26" x1="150.92" y1="13.01" x2="150.92" y2="36.08" gradientUnits="userSpaceOnUse"><stop offset="0" stop-color="#565588"/><stop offset="1" stop-color="#212f47"/></linearGradient><linearGradient id="linear-gradient-27" x1="152.63" y1="13.01" x2="152.63" y2="36.08" xlink:href="#linear-gradient-26"/><linearGradient id="linear-gradient-28" x1="148.37" y1="13.01" x2="148.37" y2="36.08" xlink:href="#linear-gradient-26"/><linearGradient id="linear-gradient-29" x1="150.41" y1="38.39" x2="150.41" y2="72.5" gradientUnits="userSpaceOnUse"><stop offset="0" stop-color="#df697b"/><stop offset="1" stop-color="#be2773"/></linearGradient><linearGradient id="linear-gradient-30" x1="141.81" y1="38.39" x2="141.81" y2="72.5" xlink:href="#linear-gradient-29"/><linearGradient id="linear-gradient-31" x1="77.36" y1="103.67" x2="77.36" y2="193.91" gradientTransform="translate(48.65 -13.99) rotate(16.27)" gradientUnits="userSpaceOnUse"><stop offset="0" stop-color="#84e4fd"/><stop offset="0.47" stop-color="#6a8cfb"/><stop offset="0.83" stop-color="#594ffa"/><stop offset="1" stop-color="#5238f9"/></linearGradient><linearGradient id="linear-gradient-32" x1="-1685.61" y1="499.18" x2="-1685.61" y2="578.78" gradientTransform="matrix(-0.99, 0.14, 0.14, 0.99, -1662.29, -141.47)" xlink:href="#linear-gradient-31"/><linearGradient id="linear-gradient-33" x1="373.23" y1="22.36" x2="373.23" y2="93.76" gradientTransform="matrix(-0.88, 0.48, 0.48, 0.88, 668.83, -81.74)" xlink:href="#linear-gradient-31"/><linearGradient id="linear-gradient-34" x1="-1993.99" y1="541.69" x2="-1993.99" y2="604.67" gradientTransform="translate(2313.92 -571.4) rotate(-4.55)" xlink:href="#linear-gradient-31"/><linearGradient id="linear-gradient-35" x1="152.55" y1="48.95" x2="298.61" y2="301.93" gradientUnits="userSpaceOnUse"><stop offset="0" stop-color="#a08aeb"/><stop offset="0.11" stop-color="#968aeb"/><stop offset="0.31" stop-color="#8a8aeb"/><stop offset="0.51" stop-color="#868aeb"/><stop offset="1" stop-color="#648aeb"/></linearGradient><linearGradient id="linear-gradient-36" x1="372.68" y1="178.82" x2="372.68" y2="200.65" gradientUnits="userSpaceOnUse"><stop offset="0" stop-color="#6a69b5"/><stop offset="0.32" stop-color="#4e4d88"/><stop offset="0.69" stop-color="#41407c"/><stop offset="0.98" stop-color="#34336f"/></linearGradient><linearGradient id="linear-gradient-37" x1="402.95" y1="277.16" x2="402.95" y2="281.52" gradientUnits="userSpaceOnUse"><stop offset="0" stop-color="#636bec"/><stop offset="0.16" stop-color="#5e65df"/><stop offset="0.45" stop-color="#5256be"/><stop offset="0.83" stop-color="#3e3e89"/><stop offset="1" stop-color="#34336f"/></linearGradient><linearGradient id="linear-gradient-38" x1="365.06" y1="152.52" x2="365.06" y2="164.91" gradientUnits="userSpaceOnUse"><stop offset="0" stop-color="#d3807c"/><stop offset="0.3" stop-color="#d3737c"/><stop offset="0.86" stop-color="#d3527c"/><stop offset="0.94" stop-color="#d34d7c"/></linearGradient><linearGradient id="linear-gradient-39" x1="371.09" y1="152.52" x2="371.09" y2="164.91" xlink:href="#linear-gradient-38"/><linearGradient id="linear-gradient-40" x1="390.81" y1="205.74" x2="390.81" y2="276.01" xlink:href="#linear-gradient-37"/><linearGradient id="linear-gradient-41" x1="386.07" y1="168.89" x2="386.07" y2="216.97" xlink:href="#linear-gradient-36"/><linearGradient id="linear-gradient-42" x1="385.7" y1="276.13" x2="385.7" y2="280.17" xlink:href="#linear-gradient-37"/><linearGradient id="linear-gradient-43" x1="369.89" y1="175.07" x2="371.58" y2="175.07" gradientUnits="userSpaceOnUse"><stop offset="0" stop-color="#6a69b5"/><stop offset="0.32" stop-color="#565588"/><stop offset="0.62" stop-color="#49487f"/><stop offset="0.98" stop-color="#34336f"/></linearGradient><linearGradient id="linear-gradient-44" x1="376.09" y1="169.35" x2="376.09" y2="174.32" xlink:href="#linear-gradient-36"/><linearGradient id="linear-gradient-45" x1="370.75" y1="174.75" x2="370.75" y2="177.26" xlink:href="#linear-gradient-36"/><linearGradient id="linear-gradient-46" x1="388.56" y1="168.75" x2="388.56" y2="190.57" xlink:href="#linear-gradient-36"/><linearGradient id="linear-gradient-47" x1="63.17" y1="224.14" x2="63.17" y2="259.87" gradientUnits="userSpaceOnUse"><stop offset="0" stop-color="#636bec"/><stop offset="1" stop-color="#3a34e9"/></linearGradient><linearGradient id="linear-gradient-48" x1="75.18" y1="221.27" x2="75.18" y2="279.15" gradientUnits="userSpaceOnUse"><stop offset="0" stop-color="#636bec"/><stop offset="1" stop-color="#554fec"/></linearGradient><linearGradient id="linear-gradient-49" x1="70.06" y1="221.69" x2="70.06" y2="223.88" xlink:href="#linear-gradient-48"/><linearGradient id="linear-gradient-50" x1="77.54" y1="219.28" x2="77.54" y2="224.48" xlink:href="#linear-gradient-47"/><linearGradient id="linear-gradient-51" x1="69.82" y1="221.87" x2="69.82" y2="224.83" xlink:href="#linear-gradient-47"/><linearGradient id="linear-gradient-52" x1="90.93" y1="221.51" x2="90.93" y2="258.79" xlink:href="#linear-gradient-47"/></defs><g class="cls-1"><g id="Layer_2" data-name="Layer 2"><g id="OBJECTS"><path class="cls-2" d="M404.62,292.31H439a1.67,1.67,0,0,0,1.67-1.66h0A1.67,1.67,0,0,0,439,289H404.62a1.67,1.67,0,0,0-1.67,1.67h0A1.67,1.67,0,0,0,404.62,292.31Z"/><path class="cls-2" d="M15.2,292.31H49.55a1.67,1.67,0,0,0,1.67-1.66h0A1.67,1.67,0,0,0,49.55,289H15.2a1.67,1.67,0,0,0-1.67,1.67h0A1.67,1.67,0,0,0,15.2,292.31Z"/><path class="cls-2" d="M435.84,307.85H6.65A6.67,6.67,0,0,1,0,301.19H0a6.67,6.67,0,0,1,6.65-6.65H435.84a6.68,6.68,0,0,1,6.65,6.65h0A6.68,6.68,0,0,1,435.84,307.85Z"/><path class="cls-2" d="M82.64,318.26h-43a7.9,7.9,0,0,1-7.88-7.88h0a7.9,7.9,0,0,1,7.88-7.88h43a7.9,7.9,0,0,1,7.89,7.88h0A7.9,7.9,0,0,1,82.64,318.26Z"/><rect class="cls-2" x="244.4" y="297.09" width="113.64" height="15.77" rx="7.88"/><path class="cls-3" d="M271.7,93.27a5.63,5.63,0,0,0,0-4.22,3.18,3.18,0,0,0,4.16-1.37,4.67,4.67,0,0,0-.59-5.07,4.67,4.67,0,0,0,3.83-3.33,6.18,6.18,0,0,0-2.29-6.46,10.15,10.15,0,0,0,5.29-9.75,11.12,11.12,0,0,0-4.81-7.83,7,7,0,0,0,1-8,6.46,6.46,0,0,0-6.09-3.37,8.4,8.4,0,0,0,2.11-9,7.85,7.85,0,0,0-5.2-4.5,13.22,13.22,0,0,0,1.17-11.78,10.46,10.46,0,0,0-6-5.85,10.3,10.3,0,0,0-.12-7.09c-1.23-2.79-5.37-5.37-8.23-3.5-1.25-1.5-4.79-3-7.54-1.66C246,1.7,244.12,4.64,243.6,8.06c-3.67-1.75-8.15.64-10.16,5.78-1.87,4.75-1.05,10.63,1.86,13.76-.42.1-3.78,1-5.38,5.6a14.46,14.46,0,0,0,1.14,11.54c-.37.25-3.63,2.47-4,8-.32,4.37,1.39,9,4.21,11.51-1.79,3.31-1.9,8.2-.17,12.4,1.89,4.61,5.58,7.51,9,7.4a9.64,9.64,0,0,0,3.19,9.53,3.88,3.88,0,0,0,5.8-.91c.41,3,2.42,5.59,4.6,6.25a3.45,3.45,0,0,0,4.25-2.06,5.1,5.1,0,0,0,3.18,3.09c1.69.39,4.92-1.32,5.4-4.25C268.39,96.35,270.92,94.84,271.7,93.27Z"/><path class="cls-4" d="M268.61,72.88c-1.29,1.56-2.63,3.13-4,4.59-.67.77-1.41,1.48-2.1,2.19-.45.46-.93.9-1.39,1.35a112.56,112.56,0,0,1-5-16.12c.64-.54,1.3-1.06,1.91-1.6.77-.68,1.57-1.36,2.32-2.06,1.49-1.37,3-2.83,4.48-4.28s2.88-3,4.24-4.53a57.59,57.59,0,0,0,3.87-4.8,57.23,57.23,0,0,1-4,4.63c-1.41,1.48-2.88,2.94-4.37,4.32s-3.07,2.75-4.6,4c-.76.64-1.59,1.28-2.37,1.91-.55.45-1.14.87-1.71,1.31a111.6,111.6,0,0,1-2.65-15.2c1.22-1.05,2.44-2.13,3.61-3.22s2.52-2.41,3.74-3.64,2.41-2.52,3.57-3.8,2.29-2.6,3.36-4c-1.12,1.32-2.3,2.57-3.51,3.8s-2.43,2.43-3.69,3.59-2.55,2.31-3.84,3.4c-1.1.92-2.24,1.83-3.37,2.7a112.32,112.32,0,0,1-.69-19.16A82,82,0,0,0,259,23.11c2.17-1.9,6.29-6,6.29-6s-4.2,4-6.41,5.78a74.48,74.48,0,0,1-6.49,4.81,114.05,114.05,0,0,1,2.37-20.4,115.24,115.24,0,0,0-2.16,12.85,30.87,30.87,0,0,1-5.73-3.61c-1.87-1.48-5.33-5-5.33-5s3.37,3.72,5.21,5.29a31.33,31.33,0,0,0,5.79,3.91,113.09,113.09,0,0,0-.82,19.79A33.32,33.32,0,0,1,248,39a43.11,43.11,0,0,1-4.12-2.2A48.36,48.36,0,0,1,236.12,31a49.68,49.68,0,0,0,7.6,6.32,42.74,42.74,0,0,0,4.07,2.46,39.16,39.16,0,0,0,4,1.81,113.4,113.4,0,0,0,1.63,16.24,36.82,36.82,0,0,1-10.25-2.13,51.07,51.07,0,0,1-10.64-5.16,52,52,0,0,0,10.56,5.71,37.45,37.45,0,0,0,10.5,2.62,113.36,113.36,0,0,0,3.78,16.23,40.58,40.58,0,0,1-4.67-.17A47,47,0,0,1,247,74a49.18,49.18,0,0,1-11.26-4A49.49,49.49,0,0,0,247,74.59a46.61,46.61,0,0,0,5.71,1.16,38.79,38.79,0,0,0,4.92.37,155.73,155.73,0,0,0,16.68,35.26l2.06-1.41c-5.82-9-11-18-14.9-28,.51-.54,1-1.08,1.54-1.64.67-.77,1.38-1.52,2-2.32,1.35-1.55,2.64-3.2,3.88-4.83s2.44-3.34,3.57-5.06a56.85,56.85,0,0,0,3.18-5.28A55.73,55.73,0,0,1,272.34,68C271.16,69.67,269.9,71.32,268.61,72.88Z"/><path class="cls-5" d="M74.31,150.72a4.13,4.13,0,0,0-1.1-2.9,2.35,2.35,0,0,0,2.5-2A3.42,3.42,0,0,0,74,142.46a3.4,3.4,0,0,0,1.75-3.29,4.53,4.53,0,0,0-3.26-3.84,7.45,7.45,0,0,0,1.07-8.08,8.13,8.13,0,0,0-5.36-4.11,5.16,5.16,0,0,0-1.42-5.76,4.76,4.76,0,0,0-5.07-.71,6.18,6.18,0,0,0-.9-6.71A5.81,5.81,0,0,0,56,108.24a9.72,9.72,0,0,0-2.29-8.4,7.71,7.71,0,0,0-5.65-2.44,7.62,7.62,0,0,0-2-4.84c-1.58-1.59-5.09-2.27-6.56-.24a5.1,5.1,0,0,0-5.62.84,7.4,7.4,0,0,0-1.31,6.43c-3-.25-5.43,2.58-5.46,6.63,0,3.75,2.07,7.58,4.89,9-.26.17-2.34,1.65-2.22,5.25a10.66,10.66,0,0,0,3.81,7.64A7.48,7.48,0,0,0,33,134.6a10.74,10.74,0,0,0,5.91,6.79A11.16,11.16,0,0,0,42,150c2.51,2.67,5.81,3.7,8.15,2.72a7.08,7.08,0,0,0,4.69,5.7,2.87,2.87,0,0,0,3.75-2.15,5.62,5.62,0,0,0,4.79,3.09,2.55,2.55,0,0,0,2.38-2.54,3.69,3.69,0,0,0,3,1.29,3.87,3.87,0,0,0,2.6-4.33C72.84,153.7,74.18,152,74.31,150.72Z"/><path class="cls-4" d="M66.84,137.53c-.48,1.41-1,2.84-1.56,4.21-.27.7-.59,1.38-.88,2.06-.18.43-.39.86-.59,1.28a82,82,0,0,1-7.67-9.75c.3-.54.62-1.07.9-1.6s.72-1.35,1.05-2c.66-1.34,1.34-2.74,1.95-4.12s1.19-2.8,1.72-4.22a41.64,41.64,0,0,0,1.4-4.31,39.62,39.62,0,0,1-1.55,4.23c-.57,1.39-1.2,2.78-1.86,4.11s-1.39,2.7-2.1,4c-.35.65-.75,1.3-1.12,1.94-.26.45-.56.9-.84,1.35a83.16,83.16,0,0,1-5.81-9.74c.56-1.05,1.12-2.1,1.64-3.16s1.09-2.32,1.61-3.48,1-2.36,1.45-3.55.9-2.39,1.27-3.61c-.42,1.2-.91,2.37-1.41,3.52s-1,2.31-1.6,3.44-1.14,2.26-1.74,3.34c-.52.92-1.06,1.84-1.61,2.74a83.56,83.56,0,0,1-5.5-13,57.76,57.76,0,0,0,3.18-5.31c1-1.88,2.75-5.76,2.75-5.76s-1.84,3.81-2.88,5.64a54.6,54.6,0,0,1-3.19,5,82.8,82.8,0,0,1-3.73-14.63A83.89,83.89,0,0,0,42,105.53a22.8,22.8,0,0,1-4.88-1c-1.68-.52-5-2.06-5-2.06s3.28,1.67,5,2.26a22.91,22.91,0,0,0,5,1.16,83.59,83.59,0,0,0,4.63,13.81,26.28,26.28,0,0,1-2.94,0,33.61,33.61,0,0,1-3.4-.43,36.26,36.26,0,0,1-6.86-2,37.3,37.3,0,0,0,6.88,2.35,32.25,32.25,0,0,0,3.44.61,26.56,26.56,0,0,0,3.2.2,82.72,82.72,0,0,0,5.38,10.73,27.59,27.59,0,0,1-7.6,1.23,38.49,38.49,0,0,1-8.66-.75,38.22,38.22,0,0,0,8.75,1.14,27.65,27.65,0,0,0,7.9-.95A83.17,83.17,0,0,0,59.68,142a29.43,29.43,0,0,1-3.24,1.11,34.17,34.17,0,0,1-4.12.86,35.66,35.66,0,0,1-8.79.2,36.27,36.27,0,0,0,8.93.18,34.39,34.39,0,0,0,4.22-.7,30.23,30.23,0,0,0,3.48-1,114.4,114.4,0,0,0,20.7,19.84l1-1.51a112.71,112.71,0,0,1-17.57-15.29c.21-.51.43-1,.62-1.53.27-.7.56-1.4.79-2.13.53-1.42,1-2.89,1.4-4.33s.8-2.94,1.13-4.41a42.68,42.68,0,0,0,.79-4.47,41.18,41.18,0,0,1-.95,4.41C67.74,134.66,67.31,136.12,66.84,137.53Z"/><path class="cls-6" d="M378.1,72.86s25.6-37.27,15.16-44C386,24.16,375.33,45,375.26,45s3.47-37.38-12.94-33.57C350,15,355.37,45.56,355.27,45.59s-10.87-16.46-18-10.13c-10.39,9.17,12.34,35.26,12.34,35.26s-15.47-14-21-4.65c-7.21,12.33,13.82,35,13.82,35s-26.21-6.82-20.88,9.83a56.74,56.74,0,0,0,24.05,30.39c14,4.56,49.22-13.4,45.1-29.15-2.53-9.68-19.32-3.36-19.32-3.36,11.57-6.66,35.71-24.1,29.41-39.38C396.26,58.38,378.11,72.86,378.1,72.86Z"/><path class="cls-4" d="M367,124.46a54.93,54.93,0,0,1-8.24,2.68,39.37,39.37,0,0,1-6.38,1,241.92,241.92,0,0,0,8.45-31.42,51,51,0,0,0,8.44-2.83,56.19,56.19,0,0,0,8.9-5,59.28,59.28,0,0,0,8.21-6.82,57.6,57.6,0,0,0,7.2-8.64,58.83,58.83,0,0,1-15.69,14.7A55.3,55.3,0,0,1,369,92.67,49.49,49.49,0,0,1,361.16,95a218.08,218.08,0,0,0,3.41-25.08,50.73,50.73,0,0,0,7.63-6.23c1.27-1.18,2.42-2.57,3.61-3.89s2.26-2.82,3.29-4.32a73.27,73.27,0,0,0,5.65-9.68,67.57,67.57,0,0,0,4.17-10.92,66.41,66.41,0,0,1-4.45,10.68,71.82,71.82,0,0,1-5.87,9.34c-1.06,1.44-2.22,2.78-3.36,4.13s-2.37,2.56-3.65,3.68A47.66,47.66,0,0,1,364.72,68a291.64,291.64,0,0,0-1.34-48.73,289.74,289.74,0,0,1,0,48.67,79.93,79.93,0,0,1-6-5.66c-2.2-2.31-4.37-4.7-6.41-7.16s-4.06-5-6-7.52-3.84-5.1-5.64-7.73c1.71,2.7,3.52,5.34,5.37,8s3.8,5.23,5.76,7.8,4.07,5.07,6.21,7.52a90.66,90.66,0,0,0,6.52,6.63,215.33,215.33,0,0,1-4.11,25,38,38,0,0,1-6.64-4.22,66.89,66.89,0,0,1-6.84-6.34c-2.14-2.26-4.2-4.66-6.16-7.1s-3.86-4.92-5.62-7.49c1.67,2.63,3.48,5.2,5.36,7.73s3.86,5,5.93,7.41a70,70,0,0,0,6.7,6.75,40.13,40.13,0,0,0,6.92,4.84,238.76,238.76,0,0,1-9.19,30.75c-1.81-1.6-3.59-3.26-5.27-5-2.1-2.22-4.17-4.51-6.13-6.87s-3.9-4.77-5.77-7.21-3.69-4.9-5.42-7.41c1.64,2.58,3.38,5.12,5.15,7.65s3.63,5,5.51,7.49,3.86,4.88,5.9,7.23c1.72,2,3.56,3.86,5.45,5.68a237.51,237.51,0,0,1-16.18,34l3.57,2a240.49,240.49,0,0,0,15.49-35,41.41,41.41,0,0,0,7-1.32,55.79,55.79,0,0,0,8.31-3.1,71.79,71.79,0,0,0,15.7-10,68.3,68.3,0,0,1-7.78,5.23A69.59,69.59,0,0,1,367,124.46Z"/><path class="cls-7" d="M87,66.63s-25.59-37.26-15.16-44c7.23-4.68,17.94,16.14,18,16.12S86.33,1.36,102.75,5.17c12.37,3.59,6.94,34.17,7,34.2s10.86-16.46,18-10.13C138.23,38.41,115.5,64.5,115.5,64.5s15.47-14,21-4.65c7.21,12.33-13.83,35-13.83,35s26.22-6.82,20.88,9.82a56.64,56.64,0,0,1-24,30.4c-14,4.56-49.21-13.41-45.1-29.15,2.54-9.68,19.32-3.36,19.32-3.36C82.11,95.86,58,78.41,64.28,63.14,68.81,52.16,87,66.64,87,66.63Z"/><path class="cls-4" d="M98.06,118.24a53.76,53.76,0,0,0,8.24,2.67,39.07,39.07,0,0,0,6.38,1,240.33,240.33,0,0,1-8.45-31.42,51.66,51.66,0,0,1-8.44-2.83,55.76,55.76,0,0,1-8.9-5,58.66,58.66,0,0,1-8.21-6.83,57.07,57.07,0,0,1-7.21-8.63,55.82,55.82,0,0,0,7.39,8.28,57.54,57.54,0,0,0,8.3,6.42,54.93,54.93,0,0,0,8.89,4.55,49.53,49.53,0,0,0,7.86,2.36,218.38,218.38,0,0,1-3.41-25.08,50.24,50.24,0,0,1-7.63-6.23c-1.27-1.18-2.42-2.57-3.61-3.89S87,50.78,86,49.27a72.5,72.5,0,0,1-5.65-9.67,68,68,0,0,1-4.18-10.92A67.36,67.36,0,0,0,80.6,39.36a70.38,70.38,0,0,0,5.87,9.34c1,1.44,2.22,2.78,3.36,4.13s2.37,2.56,3.65,3.67a47,47,0,0,0,6.87,5.32,289.52,289.52,0,0,1,1.34-48.73,288.69,288.69,0,0,0,0,48.67c2.07-1.79,4.1-3.65,6-5.66,2.2-2.32,4.36-4.7,6.41-7.17s4.06-5,6-7.51,3.84-5.11,5.64-7.73c-1.71,2.69-3.52,5.34-5.38,8s-3.79,5.23-5.76,7.79-4.06,5.08-6.21,7.53a88.68,88.68,0,0,1-6.52,6.63,219.69,219.69,0,0,0,4.11,25,39.05,39.05,0,0,0,6.65-4.22A67.94,67.94,0,0,0,119.46,78c2.15-2.26,4.21-4.66,6.17-7.1s3.86-4.93,5.62-7.5c-1.67,2.64-3.48,5.21-5.36,7.74s-3.86,5-5.94,7.41a69.89,69.89,0,0,1-6.69,6.75,40.52,40.52,0,0,1-6.92,4.84,236.58,236.58,0,0,0,9.19,30.74c1.81-1.59,3.59-3.25,5.27-5,2.1-2.22,4.17-4.51,6.13-6.87s3.9-4.77,5.76-7.21,3.69-4.9,5.43-7.41C136.48,97,134.74,99.52,133,102s-3.63,5-5.51,7.5-3.87,4.87-5.9,7.22c-1.73,2-3.56,3.87-5.46,5.69a237.51,237.51,0,0,0,16.18,34l-3.57,2a240.49,240.49,0,0,1-15.49-35,41.49,41.49,0,0,1-7-1.32,55,55,0,0,1-8.31-3.1,70.45,70.45,0,0,1-8-4.42A69.27,69.27,0,0,1,82.2,109,68.07,68.07,0,0,0,90,114.23,68.8,68.8,0,0,0,98.06,118.24Z"/><path class="cls-2" d="M417.14,277.89l12.05-57.23c1.75-8.33-3-16.66-11.31-19.82l-7.75-3-.79-43.39a13.54,13.54,0,0,0-6.93-11.44l-13.84-7.95,1-11.82c.57-7.09-5.1-13.24-12.59-13.64L71.45,93.56c-8.51-.45-15.4,6.47-14.44,14.5l3.37,28.14-4.54.81c-8.1,1.45-13.62,8.62-12.6,16.37L48,189.5l-5.78.24c-10.61.46-18.82,9-18.31,19.06L27.44,280Z"/><path class="cls-8" d="M36.42,292.31,24,233.13a18.29,18.29,0,0,1,10.91-20.66l7.59-3.13.35-45a14.16,14.16,0,0,1,6.7-11.92l13.53-8.38L62,131.81a13.15,13.15,0,0,1,12.24-14.26L374.41,97.69a13.5,13.5,0,0,1,14.33,14.88l-3,29.2,4.48.79a15.32,15.32,0,0,1,12.55,16.83l-4.28,37.47,5.69.2a18.85,18.85,0,0,1,18.19,19.55l-2.82,73.82Z"/><path class="cls-9" d="M59.69,261.57q2.2.76-5,28.92H49.49q3.94-10.86,7.45-21.89c.13-.4-.11-.47-.25-.09q-4.17,10.9-7.88,22H44.56Q57.37,260.77,59.69,261.57Z"/><path class="cls-10" d="M56.69,268.51c.14-.38.38-.31.25.09q-3.52,11-7.45,21.89h-.68Q52.52,279.42,56.69,268.51Z"/><path class="cls-11" d="M41.26,290.49H35.73l.05-2.06.1-3.62q.21-7.23.44-14.48.45-14.47.91-29c0-.77-.23-.76-.28,0q-.87,14.46-1.36,29-.24,7.24-.34,14.5l0,3.62v2.07H29.06c4-44.16,6.63-59.64,8.42-59.57S40.72,246.52,41.26,290.49Z"/><path class="cls-12" d="M37,241.35c0-.74.3-.75.28,0q-.46,14.48-.91,29-.23,7.25-.44,14.48l-.1,3.62-.05,2.06h-.52v-2.07l0-3.62q.11-7.26.34-14.5Q36.07,255.82,37,241.35Z"/><path class="cls-13" d="M31.06,290.49H27.87c-.13-10.58-.57-21.16-1.2-31.73,0-.45-.28-.43-.28,0q.15,15.86,1.08,31.72H23.22c.39-24.52,1.75-40.86,2.9-40.9S29,263.19,31.06,290.49Z"/><path class="cls-14" d="M27.87,290.49h-.4q-.95-15.84-1.08-31.72c0-.44.25-.46.28,0C27.3,269.33,27.74,279.91,27.87,290.49Z"/><path class="cls-15" d="M25.16,290.49H22.08c-1.45-7.06-3.14-14.06-5-21-.08-.33-.32-.26-.26.07q2,10.55,4.71,21H17.23q-3.52-26.88-1.65-27.26T25.16,290.49Z"/><path class="cls-16" d="M22.08,290.49h-.54q-2.68-10.41-4.71-21c-.06-.33.18-.4.26-.07C18.94,276.43,20.63,283.43,22.08,290.49Z"/><path class="cls-17" d="M55.81,246.12q2,.63-9.73,44.37H41.37q6.1-17.65,11.68-35.5c.19-.59,0-.65-.26-.09q-6.28,17.68-12,35.59H37.23Q53.78,245.48,55.81,246.12Z"/><path class="cls-18" d="M52.79,254.9c.21-.56.45-.5.26.09q-5.59,17.82-11.68,35.5h-.61Q46.49,272.61,52.79,254.9Z"/><path class="cls-19" d="M442,261.51q2.2.76-5,28.92h-5.19c2.63-7.24,5.1-14.55,7.46-21.89.12-.4-.11-.47-.26-.09q-4.17,10.91-7.88,22h-4.25Q439.65,260.72,442,261.51Z"/><path class="cls-20" d="M439,268.45c.15-.38.38-.31.26.09-2.36,7.34-4.83,14.65-7.46,21.89h-.68Q434.8,279.36,439,268.45Z"/><path class="cls-21" d="M423.54,290.43H418l0-2.06.1-3.62q.22-7.23.44-14.48.47-14.47.91-29c0-.77-.23-.76-.27,0q-.89,14.46-1.37,29-.24,7.25-.34,14.5l0,3.62v2.07h-6.14c4-44.16,6.62-59.64,8.42-59.57S423,246.46,423.54,290.43Z"/><path class="cls-22" d="M419.24,241.29c0-.74.29-.75.27,0q-.45,14.48-.91,29-.21,7.25-.44,14.48l-.1,3.62,0,2.06h-.53v-2.07l0-3.62q.11-7.26.34-14.5Q418.35,255.76,419.24,241.29Z"/><path class="cls-23" d="M413.34,290.43h-3.19c-.13-10.58-.56-21.16-1.2-31.73,0-.45-.28-.43-.27,0q.13,15.85,1.08,31.72H405.5c.4-24.52,1.76-40.86,2.91-40.9S411.27,263.13,413.34,290.43Z"/><path class="cls-24" d="M410.15,290.43h-.39q-1-15.84-1.08-31.72c0-.44.24-.46.27,0C409.59,269.27,410,279.85,410.15,290.43Z"/><path class="cls-25" d="M407.45,290.43h-3.08c-1.45-7.06-3.15-14.06-5-21-.09-.33-.33-.26-.27.07q2,10.54,4.72,21h-4.32q-3.52-26.88-1.65-27.26T407.45,290.43Z"/><path class="cls-26" d="M404.37,290.43h-.54q-2.68-10.41-4.72-21c-.06-.33.18-.4.27-.07C401.22,276.37,402.92,283.37,404.37,290.43Z"/><path class="cls-27" d="M438.09,246.06q2,.63-9.73,44.37h-4.71c4.08-11.77,8-23.62,11.69-35.5.18-.59-.06-.65-.26-.09q-6.29,17.68-12,35.59h-3.54Q436.06,245.42,438.09,246.06Z"/><path class="cls-28" d="M435.08,254.84c.2-.56.44-.5.26.09-3.74,11.88-7.61,23.73-11.69,35.5h-.6Q428.77,272.55,435.08,254.84Z"/><path class="cls-29" d="M144,19.19c-.38,7.52-1.65,21.65-1.65,21.65l17.23,0-1.26-23.5L152,14.12Z"/><path class="cls-30" d="M169.56,66c-2.25,1-9.06-11.63-11.55-17.19s-3.46-10.39-.71-11.57,5.57,2.87,7.86,8.52S171.82,65,169.56,66Z"/><path class="cls-30" d="M159,120c3.41.13,6-18.69,6.48-26.75s-.65-14.51-4.8-14.68-5.8,6.16-6,14.24S155.64,119.84,159,120Z"/><path class="cls-30" d="M157.41,160.27c3,.12,4.93-26.66,5.18-32.65s0-12.33-3.35-12.47-4.1,6.17-4.35,12.16S154.4,160.15,157.41,160.27Z"/><path class="cls-30" d="M143.16,120c3.39.31,6.94-18.35,7.83-26.38s.09-14.53-4.05-14.91-6.11,5.86-6.69,13.92S139.77,119.65,143.16,120Z"/><path class="cls-30" d="M140,160.14c3,.28,5.77-26.39,6.32-32.36s.66-12.32-2.71-12.63-4.41,5.95-5,11.93S137,159.87,140,160.14Z"/><path class="cls-30" d="M141.44,84.74h23.93s-2.08-10.64-2.18-14.48c-.09-3.15-1.35-13.18-1.35-13.18s2.89-4.35,2.87-6.62c0-3.44-5.83-12.83-5.83-12.83L150.47,35l-5.71,1.36c-3.57.68-3.68,4.07-3.68,7.71,0,11,4.61,18.44,4.19,24.73C145,72.88,141.44,84.74,141.44,84.74Z"/><path class="cls-30" d="M147.74,28v8.57s1.53.92,5.12.92c1.94,0,2.37-.92,2.37-.92V33.89Z"/><path class="cls-30" d="M147.58,23.48c0,.26,0,.51,0,.75,0,.08,0,.17,0,.26-.18,4.34.28,7.69,5.2,9.43.9.11,4,.79,5.22-.52,1.39-1.53,2.49-5.49,2.49-6.87v-.06c0-1.35-.21-1.72-.21-2.5,0-.6.32-2.5.33-3.32a10,10,0,0,0-1.11-4.18,6.31,6.31,0,0,0-6.09-3.53C146.51,12.94,147.39,18.82,147.58,23.48Z"/><path class="cls-31" d="M149.28,22.3a62.44,62.44,0,0,1-3.15,5.83s-2.47-5.25-2.17-8.94c.44-5.34,3.94-4.65,3.94-4.65,2.51-3.41,8.56-2.61,11.42,1,1.5,1.91,2.3,4.58,1.92,5.85-.17.58-.91,2.26-.91,2.26l.2-1.35c-.55-3-5.76-2.75-8.66-5.26A53.32,53.32,0,0,0,149.28,22.3Z"/><path class="cls-32" d="M150,19.91v0"/><path class="cls-30" d="M147.68,23.74c-.55-.13-1.85-.58-1.61,1.35.41,3.33,2.36,3.12,2.36,3.12-.11-.47-.29-1.14-.43-1.91.53-.32.05-.69,0-1.08a1.14,1.14,0,0,1-.06-.33C147.92,24.51,147.71,24.17,147.68,23.74Z"/><path class="cls-33" d="M147.8,25s-.61-.6-1.08-.36-.13,1.3.24,1.94.77.69.84.51-.74-.55-.46-.85.59-.35.56-.52S147.8,25,147.8,25Z"/><path class="cls-34" d="M149.28,21.79a26.34,26.34,0,0,1-1.19,3.93l-.62-2.39Z"/><path class="cls-33" d="M154.37,34.13a9.21,9.21,0,0,1-5-2.33,3.07,3.07,0,0,0,1.51,1.93A7.48,7.48,0,0,0,154.37,34.13Z"/><path class="cls-30" d="M155.32,159l-.15,3.11a.8.8,0,0,0,.81.8h8.37c.76,0,1.8-1.4,1.15-1.79-1.4-.85-3.9-2.09-5.33-2.74-.14-.06-1.35-25.5-2.61-25.51S155.32,159,155.32,159Z"/><path class="cls-30" d="M138.1,158.85v2.94a5.75,5.75,0,0,0,2,1.68c2.11.9,5.37.35,5.53-.38s-2-3.35-2-3.36a8.09,8.09,0,0,1-.91-1.39s-1.14-25.47-2.34-25.43S138.1,158.85,138.1,158.85Z"/><path class="cls-35" d="M165.7,163H155.41a.24.24,0,0,1-.24-.24v-1.62c2.07,0,6.8.08,7.08,0a5.4,5.4,0,0,0,1.4-1.38,27.4,27.4,0,0,1,2.6,1.59A.9.9,0,0,1,165.7,163Z"/><path class="cls-35" d="M140.1,163.47a5.75,5.75,0,0,1-2-1.68v-1.34l2,1.2c1.41-1.5,4-1.93,4.7-.62h0a3.59,3.59,0,0,1,.83,2.06C145.47,163.82,142.21,164.37,140.1,163.47Z"/><path class="cls-35" d="M166.36,118.44s-.37-24.22-.73-32.16c-.34-7.41-3-30.44-3-30.44a11.55,11.55,0,0,0,2.38-5.9c0-.84-1.16-3.8-2.41-6.63-.37-.85.74-1.51.74-1.51a10,10,0,0,0-2.1-4.11c-1.15-1.14-6-1.12-6-1.12,2.8.81,3.46,4.68,3.05,5s-5.8.21-6.8,0-2.81-5.06-5.44-5.45a6.11,6.11,0,0,0-3.73,1c-2,1.22-2.74,4.66-2.74,4.66s7.2-.19,6.75,4c0,.1,0,.21,0,.31C145.71,50.41,142.7,58,142.7,58a21.41,21.41,0,0,1,1.22,9.63c-.81,6.2-9.47,50.77-9.47,50.77Z"/><path class="cls-36" d="M166.36,118.44s-.37-24.22-.73-32.16c-.34-7.41-3-30.44-3-30.44a11.55,11.55,0,0,0,2.38-5.9c0-.84-1.16-3.8-2.41-6.63-.37-.85.74-1.51.74-1.51a10,10,0,0,0-2.1-4.11c-1.15-1.14-6-1.12-6-1.12,2.8.81,3.46,4.68,3.05,5s-5.8.21-6.8,0-2.81-5.06-5.44-5.45a6.11,6.11,0,0,0-3.73,1c-2,1.22-2.74,4.66-2.74,4.66s7.2-.19,6.75,4c0,.1,0,.21,0,.31C145.71,50.41,142.7,58,142.7,58a21.41,21.41,0,0,1,1.22,9.63c-.81,6.2-9.47,50.77-9.47,50.77Z"/><path class="cls-30" d="M127.56,62.79c2,1.43,11.36-9.41,15-14.3s5.62-9.4,3.18-11.14-6,1.6-9.5,6.62S125.57,61.36,127.56,62.79Z"/><path class="cls-37" d="M144.49,36.21c-2.9.59-5.45,3.8-8.61,6.9a19.28,19.28,0,0,0,6.67,5.38l-1.29,1.69A57.19,57.19,0,0,0,142.7,58c1,3.83,4.11-9,4.11-9l.93-11.15Z"/><path class="cls-38" d="M93.22,217.18c-9-3.28-27.81-1.93-34.35-8.89a12.11,12.11,0,0,1-3.28-5.41,5.61,5.61,0,0,1,1.81-5.77c1.41-1,3.43-1.21,4.46-2.61a3.85,3.85,0,0,0-.07-4.14,10.35,10.35,0,0,0-3.16-3c-3-2-6.2-4-8-7.1s-1.53-7.83,1.64-9.55c1.85-1,4.4-.89,5.68-2.57s.56-3.92-.7-5.44-3-2.56-4.38-4a10.45,10.45,0,0,1,2.35-16.27Z"/><path class="cls-39" d="M93.22,217.18c2.63-9.18,14.81-23.62,13-33a12.23,12.23,0,0,0-2.45-5.84,5.61,5.61,0,0,0-5.73-1.94c-1.66.54-3,2.07-4.74,2.07A3.82,3.82,0,0,1,90,176a10.26,10.26,0,0,1-.55-4.31c.09-3.61.42-7.37-1-10.67s-5.42-5.85-8.68-4.3c-1.91.9-3.31,3-5.43,3.08-2,.05-3.49-1.85-4-3.77s-.29-3.94-.65-5.88a10.44,10.44,0,0,0-14.54-7.68Z"/><path class="cls-40" d="M60.58,156.08a.35.35,0,0,0,.27-.22.34.34,0,0,0-.2-.43l-8.59-3.17a.34.34,0,0,0-.23.63l8.59,3.17A.44.44,0,0,0,60.58,156.08Z"/><path class="cls-40" d="M63.39,155.2a.34.34,0,0,0,.28-.26l2.1-9a.35.35,0,0,0-.25-.41.33.33,0,0,0-.4.25l-2.11,9a.33.33,0,0,0,.25.4Z"/><g class="cls-41"><path class="cls-42" d="M77.26,179.94a.33.33,0,0,0,.27-.23l5.82-17.93a.33.33,0,1,0-.63-.21L76.89,179.5a.33.33,0,0,0,.22.42A.39.39,0,0,0,77.26,179.94Z"/></g><path class="cls-40" d="M87.11,202.52a.33.33,0,0,0,.23-.14l13.35-19.58a.34.34,0,1,0-.56-.38L86.79,202a.34.34,0,0,0,.08.47A.35.35,0,0,0,87.11,202.52Z"/><path class="cls-40" d="M71.83,182a.32.32,0,0,0,.28-.23.34.34,0,0,0-.23-.42l-19.23-5.82a.34.34,0,0,0-.42.22.33.33,0,0,0,.22.42L71.69,182A.23.23,0,0,0,71.83,182Z"/><path class="cls-40" d="M83.79,204.57a.36.36,0,0,0,.29-.29.35.35,0,0,0-.29-.38L58,200.3a.34.34,0,0,0-.38.28.34.34,0,0,0,.29.38l25.76,3.61Z"/><path class="cls-43" d="M371,201.53c6.38-4.05,21.17-6.2,25.05-12.68a9.68,9.68,0,0,0,1.62-4.75A4.45,4.45,0,0,0,395.3,180c-1.27-.56-2.86-.35-3.9-1.26a3,3,0,0,1-.64-3.21,8.24,8.24,0,0,1,1.93-2.84c1.95-2.08,4.12-4.14,5-6.85s-.14-6.31-2.88-7.1c-1.6-.47-3.55.05-4.83-1s-1.09-2.93-.38-4.32,1.9-2.49,2.71-3.82a8.28,8.28,0,0,0-4.57-12.19Z"/><path class="cls-44" d="M371,201.53c-3.59-6.65-15.44-15.76-15.66-23.31a9.66,9.66,0,0,1,.91-4.93,4.44,4.44,0,0,1,4.1-2.46c1.37.13,2.66,1.09,4,.8a3.06,3.06,0,0,0,2.13-2.48,8.17,8.17,0,0,0-.3-3.43c-.69-2.77-1.58-5.62-1-8.42s3.2-5.43,6-4.79c1.63.38,3.08,1.79,4.72,1.47s2.38-2,2.44-3.59-.44-3.1-.5-4.66a8.28,8.28,0,0,1,9.94-8.4Z"/><path class="cls-40" d="M385.89,148.77a.24.24,0,0,1-.24-.12.26.26,0,0,1,.08-.37l6.1-3.9a.27.27,0,1,1,.29.45l-6.11,3.9A.17.17,0,0,1,385.89,148.77Z"/><path class="cls-40" d="M383.57,148.57a.27.27,0,0,1-.26-.15l-3.15-6.62a.27.27,0,0,1,.13-.36.27.27,0,0,1,.35.13l3.15,6.62a.26.26,0,0,1-.12.35A.17.17,0,0,1,383.57,148.57Z"/><g class="cls-41"><path class="cls-42" d="M377,170a.26.26,0,0,1-.25-.13L369.25,157a.28.28,0,0,1,.1-.37.26.26,0,0,1,.36.1l7.54,12.87a.26.26,0,0,1-.1.36A.21.21,0,0,1,377,170Z"/></g><path class="cls-40" d="M373.25,189.16a.27.27,0,0,1-.21-.07l-13.63-12.88a.26.26,0,1,1,.36-.38l13.64,12.88a.27.27,0,0,1,0,.37A.25.25,0,0,1,373.25,189.16Z"/><path class="cls-40" d="M381.58,170.69a.29.29,0,0,1-.26-.14.27.27,0,0,1,.11-.36l13.88-7.75a.25.25,0,0,1,.36.1.26.26,0,0,1-.1.36l-13.89,7.75Z"/><path class="cls-40" d="M376.16,190.18a.26.26,0,0,1-.27-.17.27.27,0,0,1,.15-.34l19.3-7.15a.26.26,0,0,1,.34.16.25.25,0,0,1-.15.34l-19.3,7.14Z"/><path class="cls-45" d="M377.71,75.54V275.36A4.74,4.74,0,0,1,373,280.1H78.18a4.74,4.74,0,0,1-4.73-4.74V75.54a4.74,4.74,0,0,1,4.73-4.74H373A4.74,4.74,0,0,1,377.71,75.54Z"/><path class="cls-46" d="M362.73,264.91H88.43V86h274.3Z"/><path class="cls-47" d="M362.73,93H88.43V86h274.3Z"/><path class="cls-48" d="M427.37,294.54a4.77,4.77,0,0,1-4.81,4.73H28.6a4.77,4.77,0,0,1-4.81-4.73v-9.72a4.77,4.77,0,0,1,4.81-4.73h394a4.77,4.77,0,0,1,4.81,4.73Z"/><path class="cls-49" d="M250.07,280.09v4.63a4.73,4.73,0,0,1-4.73,4.73H205.83a4.74,4.74,0,0,1-4.74-4.73v-4.63Z"/><rect class="cls-4" x="101.26" y="207.8" width="69.48" height="43.33" rx="2.43"/><rect class="cls-2" x="108.88" y="234.07" width="54.25" height="1.77"/><rect class="cls-2" x="108.88" y="242.25" width="37.77" height="1.77"/><rect class="cls-2" x="108.88" y="238.16" width="54.25" height="1.77"/><rect class="cls-2" x="108.11" y="213.98" width="55.2" height="17.43"/><path class="cls-4" d="M122.75,227.67h-10v-10h10Zm-8.84-1.12h7.73v-7.72h-7.73Z"/><path class="cls-4" d="M135.71,229a6.28,6.28,0,1,1,6.28-6.28A6.28,6.28,0,0,1,135.71,229Zm0-11.44a5.16,5.16,0,1,0,5.17,5.16A5.17,5.17,0,0,0,135.71,217.53Z"/><path class="cls-4" d="M158,228H145.2l6.41-11.11Zm-10.9-1.12h9l-4.49-7.76Z"/><rect class="cls-50" x="280.63" y="151.31" width="69.48" height="43.33" rx="2.43"/><polygon class="cls-2" points="323.92 158.18 306.82 158.18 298.28 172.98 306.82 187.78 323.92 187.78 332.46 172.98 323.92 158.18"/><polygon class="cls-50" points="319.47 165.88 311.27 165.88 307.18 172.98 311.27 180.07 319.47 180.07 323.56 172.98 319.47 165.88"/><path class="cls-50" d="M321.78,184.08H309l-6.4-11.1,6.4-11.1h12.82l6.41,11.1Zm-12.24-1H321.2L327,173l-5.83-10.1H309.54L303.71,173Z"/><rect class="cls-4" x="190.79" y="208.88" width="69.48" height="43.33" rx="2.43"/><rect class="cls-2" x="198.11" y="215.34" width="54.84" height="1.77"/><rect class="cls-2" x="198.11" y="219.43" width="54.84" height="1.77"/><rect class="cls-2" x="198.11" y="223.52" width="54.84" height="1.77"/><rect class="cls-2" x="198.11" y="227.61" width="54.84" height="1.77"/><rect class="cls-2" x="198.11" y="231.7" width="54.84" height="1.77"/><rect class="cls-2" x="198.11" y="235.8" width="54.84" height="1.77"/><rect class="cls-2" x="198.11" y="243.98" width="38.19" height="1.77"/><rect class="cls-2" x="198.11" y="239.89" width="54.84" height="1.77"/><path class="cls-47" d="M282.74,250.92a2.73,2.73,0,0,1-1.52-.47.28.28,0,0,1-.07-.39.26.26,0,0,1,.38-.07,2.18,2.18,0,0,0,1.21.37h2a.27.27,0,0,1,.27.28.28.28,0,0,1-.27.28h-2Zm64.63,0h-.62a.28.28,0,0,1-.28-.28.27.27,0,0,1,.28-.28h.62a2.12,2.12,0,0,0,1.15-.34.29.29,0,0,1,.39.09.28.28,0,0,1-.09.38A2.67,2.67,0,0,1,347.37,250.92Zm-2.62,0h-2a.28.28,0,0,1-.28-.28.27.27,0,0,1,.28-.28h2a.27.27,0,0,1,.27.28A.28.28,0,0,1,344.75,250.92Zm-4,0h-2a.28.28,0,0,1-.28-.28.27.27,0,0,1,.28-.28h2a.27.27,0,0,1,.27.28A.28.28,0,0,1,340.75,250.92Zm-4,0h-2a.28.28,0,0,1-.28-.28.27.27,0,0,1,.28-.28h2a.27.27,0,0,1,.27.28A.28.28,0,0,1,336.75,250.92Zm-4,0h-2a.28.28,0,0,1-.28-.28.27.27,0,0,1,.28-.28h2a.27.27,0,0,1,.27.28A.28.28,0,0,1,332.75,250.92Zm-4,0h-2a.28.28,0,0,1-.28-.28.27.27,0,0,1,.28-.28h2a.27.27,0,0,1,.27.28A.28.28,0,0,1,328.75,250.92Zm-4,0h-2a.28.28,0,0,1-.28-.28.27.27,0,0,1,.28-.28h2a.27.27,0,0,1,.27.28A.28.28,0,0,1,324.75,250.92Zm-4,0h-2a.28.28,0,0,1-.28-.28.27.27,0,0,1,.28-.28h2a.27.27,0,0,1,.27.28A.28.28,0,0,1,320.75,250.92Zm-4,0h-2a.28.28,0,0,1-.28-.28.27.27,0,0,1,.28-.28h2a.27.27,0,0,1,.27.28A.28.28,0,0,1,316.75,250.92Zm-4,0h-2a.28.28,0,0,1-.28-.28.27.27,0,0,1,.28-.28h2a.27.27,0,0,1,.27.28A.28.28,0,0,1,312.75,250.92Zm-4,0h-2a.28.28,0,0,1-.28-.28.27.27,0,0,1,.28-.28h2a.27.27,0,0,1,.27.28A.28.28,0,0,1,308.75,250.92Zm-4,0h-2a.28.28,0,0,1-.28-.28.27.27,0,0,1,.28-.28h2a.27.27,0,0,1,.27.28A.28.28,0,0,1,304.75,250.92Zm-4,0h-2a.28.28,0,0,1-.28-.28.27.27,0,0,1,.28-.28h2a.27.27,0,0,1,.27.28A.28.28,0,0,1,300.75,250.92Zm-4,0h-2a.28.28,0,0,1-.28-.28.27.27,0,0,1,.28-.28h2a.27.27,0,0,1,.27.28A.28.28,0,0,1,296.75,250.92Zm-4,0h-2a.28.28,0,0,1-.28-.28.27.27,0,0,1,.28-.28h2a.27.27,0,0,1,.27.28A.28.28,0,0,1,292.75,250.92Zm-4,0h-2a.28.28,0,0,1-.28-.28.27.27,0,0,1,.28-.28h2a.27.27,0,0,1,.27.28A.28.28,0,0,1,288.75,250.92Zm61-2h-.05a.29.29,0,0,1-.23-.32,1.72,1.72,0,0,0,0-.39v-1.56a.28.28,0,0,1,.28-.28.29.29,0,0,1,.28.28v1.56a2.44,2.44,0,0,1-.05.48A.27.27,0,0,1,349.76,248.92Zm-69.42-.07a.28.28,0,0,1-.27-.24,2.69,2.69,0,0,1,0-.4v-1.64a.28.28,0,0,1,.28-.28.29.29,0,0,1,.28.28v1.64a1.72,1.72,0,0,0,0,.32.27.27,0,0,1-.24.31Zm69.46-3.92a.28.28,0,0,1-.28-.28v-2a.28.28,0,0,1,.28-.28.29.29,0,0,1,.28.28v2A.29.29,0,0,1,349.8,244.93Zm-69.48-.08a.28.28,0,0,1-.28-.28v-2a.28.28,0,0,1,.28-.28.29.29,0,0,1,.28.28v2A.29.29,0,0,1,280.32,244.85Zm69.48-3.92a.28.28,0,0,1-.28-.28v-2a.28.28,0,0,1,.28-.28.29.29,0,0,1,.28.28v2A.29.29,0,0,1,349.8,240.93Zm-69.48-.08a.28.28,0,0,1-.28-.28v-2a.28.28,0,0,1,.28-.28.29.29,0,0,1,.28.28v2A.29.29,0,0,1,280.32,240.85Zm69.48-3.92a.28.28,0,0,1-.28-.28v-2a.28.28,0,0,1,.28-.28.29.29,0,0,1,.28.28v2A.29.29,0,0,1,349.8,236.93Zm-69.48-.08a.28.28,0,0,1-.28-.28v-2a.28.28,0,0,1,.28-.28.29.29,0,0,1,.28.28v2A.29.29,0,0,1,280.32,236.85Zm69.48-3.92a.28.28,0,0,1-.28-.28v-2a.28.28,0,0,1,.28-.28.29.29,0,0,1,.28.28v2A.29.29,0,0,1,349.8,232.93Zm-69.48-.08a.28.28,0,0,1-.28-.28v-2a.28.28,0,0,1,.28-.28.29.29,0,0,1,.28.28v2A.29.29,0,0,1,280.32,232.85Zm69.48-3.92a.28.28,0,0,1-.28-.28v-2a.28.28,0,0,1,.28-.28.29.29,0,0,1,.28.28v2A.29.29,0,0,1,349.8,228.93Zm-69.48-.08a.28.28,0,0,1-.28-.28v-2a.28.28,0,0,1,.28-.28.29.29,0,0,1,.28.28v2A.29.29,0,0,1,280.32,228.85Zm69.48-3.92a.28.28,0,0,1-.28-.28v-2a.28.28,0,0,1,.28-.28.29.29,0,0,1,.28.28v2A.29.29,0,0,1,349.8,224.93Zm-69.48-.08a.28.28,0,0,1-.28-.28v-2a.28.28,0,0,1,.28-.28.29.29,0,0,1,.28.28v2A.29.29,0,0,1,280.32,224.85Zm69.48-3.92a.28.28,0,0,1-.28-.28v-2a.28.28,0,0,1,.28-.28.29.29,0,0,1,.28.28v2A.29.29,0,0,1,349.8,220.93Zm-69.48-.08a.28.28,0,0,1-.28-.28v-2a.28.28,0,0,1,.28-.28.29.29,0,0,1,.28.28v2A.29.29,0,0,1,280.32,220.85Zm69.48-3.92a.28.28,0,0,1-.28-.28v-2a.28.28,0,0,1,.28-.28.29.29,0,0,1,.28.28v2A.29.29,0,0,1,349.8,216.93Zm-69.48-.08a.28.28,0,0,1-.28-.28v-2a.28.28,0,0,1,.28-.28.29.29,0,0,1,.28.28v2A.29.29,0,0,1,280.32,216.85Zm69.48-3.92a.28.28,0,0,1-.28-.28v-2a.28.28,0,0,1,.28-.28.29.29,0,0,1,.28.28v2A.29.29,0,0,1,349.8,212.93Zm-69.48-.08a.28.28,0,0,1-.28-.28v-2a.28.28,0,0,1,.28-.28.29.29,0,0,1,.28.28v2A.29.29,0,0,1,280.32,212.85ZM349.56,209a.27.27,0,0,1-.25-.16,2.21,2.21,0,0,0-1.31-1.12.28.28,0,0,1-.18-.35.27.27,0,0,1,.35-.18,2.76,2.76,0,0,1,1.64,1.41.27.27,0,0,1-.13.37A.27.27,0,0,1,349.56,209Zm-69-.07a.31.31,0,0,1-.13,0,.28.28,0,0,1-.12-.37,2.7,2.7,0,0,1,1.69-1.36.27.27,0,0,1,.34.19.28.28,0,0,1-.19.34,2.14,2.14,0,0,0-1.34,1.08A.27.27,0,0,1,280.59,208.89Zm65.51-1.3h-2a.28.28,0,1,1,0-.56h2a.28.28,0,0,1,0,.56Zm-4,0h-2a.28.28,0,1,1,0-.56h2a.28.28,0,0,1,0,.56Zm-4,0h-2a.28.28,0,1,1,0-.56h2a.28.28,0,0,1,0,.56Zm-4,0h-2a.28.28,0,1,1,0-.56h2a.28.28,0,0,1,0,.56Zm-4,0h-2a.28.28,0,1,1,0-.56h2a.28.28,0,0,1,0,.56Zm-4,0h-2a.28.28,0,1,1,0-.56h2a.28.28,0,0,1,0,.56Zm-4,0h-2a.28.28,0,1,1,0-.56h2a.28.28,0,0,1,0,.56Zm-4,0h-2a.28.28,0,1,1,0-.56h2a.28.28,0,0,1,0,.56Zm-4,0h-2a.28.28,0,1,1,0-.56h2a.28.28,0,0,1,0,.56Zm-4,0h-2a.28.28,0,1,1,0-.56h2a.28.28,0,0,1,0,.56Zm-4,0h-2a.28.28,0,1,1,0-.56h2a.28.28,0,0,1,0,.56Zm-4,0h-2a.28.28,0,1,1,0-.56h2a.28.28,0,0,1,0,.56Zm-4,0h-2a.28.28,0,1,1,0-.56h2a.28.28,0,0,1,0,.56Zm-4,0h-2a.28.28,0,1,1,0-.56h2a.28.28,0,0,1,0,.56Zm-4,0h-2a.28.28,0,1,1,0-.56h2a.28.28,0,0,1,0,.56Zm-4,0h-2a.28.28,0,1,1,0-.56h2a.28.28,0,0,1,0,.56Z"/><rect class="cls-4" x="103" y="171.04" width="156.48" height="26.72"/><circle class="cls-2" cx="118.45" cy="184.4" r="9.35" transform="translate(-95.7 137.77) rotate(-45)"/><rect class="cls-2" x="135.95" y="177.34" width="115.52" height="2.04"/><rect class="cls-2" x="135.95" y="183.38" width="115.52" height="2.04"/><rect class="cls-2" x="218.96" y="189.43" width="32.5" height="2.04"/><rect class="cls-2" x="135.95" y="189.43" width="73.85" height="2.04"/><rect class="cls-4" x="103" y="137.76" width="156.48" height="26.72"/><circle class="cls-2" cx="118.45" cy="151.12" r="9.35" transform="translate(-55.84 231.68) rotate(-76.72)"/><rect class="cls-2" x="135.95" y="144.06" width="115.52" height="2.04"/><rect class="cls-2" x="135.95" y="150.1" width="115.52" height="2.04"/><rect class="cls-2" x="218.96" y="156.14" width="32.5" height="2.04"/><rect class="cls-2" x="135.95" y="156.14" width="73.85" height="2.04"/><path class="cls-47" d="M259.92,130.52h-1a.27.27,0,0,1-.28-.28.28.28,0,0,1,.28-.28h.72v-.72a.28.28,0,1,1,.55,0v1A.27.27,0,0,1,259.92,130.52Z"/><path class="cls-47" d="M256.91,130.52h-2a.28.28,0,0,1-.28-.28.29.29,0,0,1,.28-.28h2a.28.28,0,0,1,.27.28A.27.27,0,0,1,256.91,130.52Zm-4,0h-2a.28.28,0,0,1-.28-.28.29.29,0,0,1,.28-.28h2a.29.29,0,0,1,.28.28A.28.28,0,0,1,252.88,130.52Zm-4,0h-2a.27.27,0,0,1-.28-.28.28.28,0,0,1,.28-.28h2a.29.29,0,0,1,.28.28A.28.28,0,0,1,248.86,130.52Zm-4,0h-2a.28.28,0,0,1-.28-.28.29.29,0,0,1,.28-.28h2a.28.28,0,0,1,.28.28A.27.27,0,0,1,244.83,130.52Zm-4,0h-2a.27.27,0,0,1-.28-.28.28.28,0,0,1,.28-.28h2a.29.29,0,0,1,.28.28A.28.28,0,0,1,240.81,130.52Zm-4,0h-2a.28.28,0,0,1-.28-.28.29.29,0,0,1,.28-.28h2a.28.28,0,0,1,.28.28A.27.27,0,0,1,236.78,130.52Zm-4,0h-2a.28.28,0,0,1-.28-.28.29.29,0,0,1,.28-.28h2a.29.29,0,0,1,.28.28A.28.28,0,0,1,232.76,130.52Zm-4,0h-2a.27.27,0,0,1-.28-.28.28.28,0,0,1,.28-.28h2a.29.29,0,0,1,.28.28A.28.28,0,0,1,228.74,130.52Zm-4,0h-2a.28.28,0,0,1-.28-.28.29.29,0,0,1,.28-.28h2a.28.28,0,0,1,.28.28A.27.27,0,0,1,224.71,130.52Zm-4,0h-2a.27.27,0,0,1-.28-.28.28.28,0,0,1,.28-.28h2a.29.29,0,0,1,.28.28A.28.28,0,0,1,220.69,130.52Zm-4,0h-2a.27.27,0,0,1-.27-.28.28.28,0,0,1,.27-.28h2a.28.28,0,0,1,.27.28A.27.27,0,0,1,216.67,130.52Zm-4,0h-2a.28.28,0,0,1-.28-.28.29.29,0,0,1,.28-.28h2a.29.29,0,0,1,.28.28A.28.28,0,0,1,212.64,130.52Zm-4,0h-2a.27.27,0,0,1-.28-.28.28.28,0,0,1,.28-.28h2a.29.29,0,0,1,.28.28A.28.28,0,0,1,208.62,130.52Zm-4,0h-2a.28.28,0,0,1-.28-.28.29.29,0,0,1,.28-.28h2a.28.28,0,0,1,.28.28A.27.27,0,0,1,204.59,130.52Zm-4,0h-2a.28.28,0,0,1-.28-.28.29.29,0,0,1,.28-.28h2a.29.29,0,0,1,.28.28A.28.28,0,0,1,200.57,130.52Zm-4,0h-2a.27.27,0,0,1-.27-.28.28.28,0,0,1,.27-.28h2a.28.28,0,0,1,.27.28A.27.27,0,0,1,196.55,130.52Zm-4,0h-2a.28.28,0,0,1-.28-.28.29.29,0,0,1,.28-.28h2a.28.28,0,0,1,.28.28A.27.27,0,0,1,192.52,130.52Zm-4,0h-2a.27.27,0,0,1-.28-.28.28.28,0,0,1,.28-.28h2a.29.29,0,0,1,.28.28A.28.28,0,0,1,188.5,130.52Zm-4,0h-2a.28.28,0,0,1-.28-.28.29.29,0,0,1,.28-.28h2a.28.28,0,0,1,.28.28A.27.27,0,0,1,184.47,130.52Zm-4,0h-2a.27.27,0,0,1-.28-.28.28.28,0,0,1,.28-.28h2a.29.29,0,0,1,.28.28A.28.28,0,0,1,180.45,130.52Zm-4,0h-2a.27.27,0,0,1-.27-.28.28.28,0,0,1,.27-.28h2a.28.28,0,0,1,.27.28A.27.27,0,0,1,176.43,130.52Zm-4,0h-2a.28.28,0,0,1-.28-.28.29.29,0,0,1,.28-.28h2a.28.28,0,0,1,.28.28A.27.27,0,0,1,172.4,130.52Zm-4,0h-2a.27.27,0,0,1-.28-.28.28.28,0,0,1,.28-.28h2a.29.29,0,0,1,.28.28A.28.28,0,0,1,168.38,130.52Zm-4,0h-2a.28.28,0,0,1-.28-.28.29.29,0,0,1,.28-.28h2a.28.28,0,0,1,.28.28A.27.27,0,0,1,164.35,130.52Zm-4,0h-2a.28.28,0,0,1-.28-.28.29.29,0,0,1,.28-.28h2a.29.29,0,0,1,.28.28A.28.28,0,0,1,160.33,130.52Zm-4,0h-2a.27.27,0,0,1-.27-.28.28.28,0,0,1,.27-.28h2a.28.28,0,0,1,.27.28A.27.27,0,0,1,156.31,130.52Zm-4,0h-2a.28.28,0,0,1-.28-.28.29.29,0,0,1,.28-.28h2a.28.28,0,0,1,.28.28A.27.27,0,0,1,152.28,130.52Zm-4,0h-2a.27.27,0,0,1-.28-.28.28.28,0,0,1,.28-.28h2a.29.29,0,0,1,.28.28A.28.28,0,0,1,148.26,130.52Zm-4,0h-2a.28.28,0,0,1-.28-.28.29.29,0,0,1,.28-.28h2a.28.28,0,0,1,.27.28A.27.27,0,0,1,144.24,130.52Zm-4,0h-2a.28.28,0,0,1-.28-.28.29.29,0,0,1,.28-.28h2a.29.29,0,0,1,.28.28A.28.28,0,0,1,140.21,130.52Zm-4,0h-2a.27.27,0,0,1-.28-.28.28.28,0,0,1,.28-.28h2a.29.29,0,0,1,.28.28A.28.28,0,0,1,136.19,130.52Zm-4,0h-2a.28.28,0,0,1-.28-.28.29.29,0,0,1,.28-.28h2a.28.28,0,0,1,.28.28A.27.27,0,0,1,132.16,130.52Zm-4,0h-2a.27.27,0,0,1-.28-.28.28.28,0,0,1,.28-.28h2a.29.29,0,0,1,.28.28A.28.28,0,0,1,128.14,130.52Zm-4,0h-2a.28.28,0,0,1-.28-.28.29.29,0,0,1,.28-.28h2a.28.28,0,0,1,.28.28A.27.27,0,0,1,124.11,130.52Zm-4,0h-2a.28.28,0,0,1-.28-.28.29.29,0,0,1,.28-.28h2a.29.29,0,0,1,.28.28A.28.28,0,0,1,120.09,130.52Zm-4,0h-2a.27.27,0,0,1-.28-.28.28.28,0,0,1,.28-.28h2a.29.29,0,0,1,.28.28A.28.28,0,0,1,116.07,130.52Zm-4,0h-2a.28.28,0,0,1-.28-.28A.29.29,0,0,1,110,130h2a.28.28,0,0,1,.28.28A.27.27,0,0,1,112,130.52Zm-4,0h-2a.27.27,0,0,1-.28-.28A.28.28,0,0,1,106,130h2a.29.29,0,0,1,.28.28A.28.28,0,0,1,108,130.52Z"/><path class="cls-47" d="M104,130.52h-1a.27.27,0,0,1-.28-.28v-1a.28.28,0,1,1,.55,0V130H104a.28.28,0,0,1,.27.28A.27.27,0,0,1,104,130.52Z"/><path class="cls-47" d="M103,127.61a.27.27,0,0,1-.28-.27v-1.91a.28.28,0,1,1,.55,0v1.91A.27.27,0,0,1,103,127.61Zm0-3.81a.27.27,0,0,1-.28-.28v-1.91a.28.28,0,0,1,.55,0v1.91A.27.27,0,0,1,103,123.8Zm0-3.81a.28.28,0,0,1-.28-.28V117.8a.28.28,0,1,1,.55,0v1.91A.28.28,0,0,1,103,120Zm0-3.82a.27.27,0,0,1-.28-.28V114a.28.28,0,1,1,.55,0v1.9A.27.27,0,0,1,103,116.17Zm0-3.81a.28.28,0,0,1-.28-.28v-1.91a.28.28,0,1,1,.55,0v1.91A.28.28,0,0,1,103,112.36Zm0-3.82a.27.27,0,0,1-.28-.27v-1.91a.28.28,0,1,1,.55,0v1.91A.27.27,0,0,1,103,108.54Z"/><path class="cls-47" d="M103,104.73a.27.27,0,0,1-.28-.28v-1a.28.28,0,0,1,.28-.28h1a.28.28,0,0,1,.27.28.27.27,0,0,1-.27.28h-.73v.72A.27.27,0,0,1,103,104.73Z"/><path class="cls-47" d="M256.91,103.73h-2a.28.28,0,0,1-.28-.28.29.29,0,0,1,.28-.28h2a.28.28,0,0,1,.27.28A.27.27,0,0,1,256.91,103.73Zm-4,0h-2a.28.28,0,0,1-.28-.28.29.29,0,0,1,.28-.28h2a.29.29,0,0,1,.28.28A.28.28,0,0,1,252.88,103.73Zm-4,0h-2a.27.27,0,0,1-.28-.28.28.28,0,0,1,.28-.28h2a.29.29,0,0,1,.28.28A.28.28,0,0,1,248.86,103.73Zm-4,0h-2a.28.28,0,0,1-.28-.28.29.29,0,0,1,.28-.28h2a.28.28,0,0,1,.28.28A.27.27,0,0,1,244.83,103.73Zm-4,0h-2a.27.27,0,0,1-.28-.28.28.28,0,0,1,.28-.28h2a.29.29,0,0,1,.28.28A.28.28,0,0,1,240.81,103.73Zm-4,0h-2a.28.28,0,0,1-.28-.28.29.29,0,0,1,.28-.28h2a.28.28,0,0,1,.28.28A.27.27,0,0,1,236.78,103.73Zm-4,0h-2a.28.28,0,0,1-.28-.28.29.29,0,0,1,.28-.28h2a.29.29,0,0,1,.28.28A.28.28,0,0,1,232.76,103.73Zm-4,0h-2a.27.27,0,0,1-.28-.28.28.28,0,0,1,.28-.28h2a.29.29,0,0,1,.28.28A.28.28,0,0,1,228.74,103.73Zm-4,0h-2a.28.28,0,0,1-.28-.28.29.29,0,0,1,.28-.28h2a.28.28,0,0,1,.28.28A.27.27,0,0,1,224.71,103.73Zm-4,0h-2a.27.27,0,0,1-.28-.28.28.28,0,0,1,.28-.28h2a.29.29,0,0,1,.28.28A.28.28,0,0,1,220.69,103.73Zm-4,0h-2a.27.27,0,0,1-.27-.28.28.28,0,0,1,.27-.28h2a.28.28,0,0,1,.27.28A.27.27,0,0,1,216.67,103.73Zm-4,0h-2a.28.28,0,0,1-.28-.28.29.29,0,0,1,.28-.28h2a.29.29,0,0,1,.28.28A.28.28,0,0,1,212.64,103.73Zm-4,0h-2a.27.27,0,0,1-.28-.28.28.28,0,0,1,.28-.28h2a.29.29,0,0,1,.28.28A.28.28,0,0,1,208.62,103.73Zm-4,0h-2a.28.28,0,0,1-.28-.28.29.29,0,0,1,.28-.28h2a.28.28,0,0,1,.28.28A.27.27,0,0,1,204.59,103.73Zm-4,0h-2a.28.28,0,0,1-.28-.28.29.29,0,0,1,.28-.28h2a.29.29,0,0,1,.28.28A.28.28,0,0,1,200.57,103.73Zm-4,0h-2a.27.27,0,0,1-.27-.28.28.28,0,0,1,.27-.28h2a.28.28,0,0,1,.27.28A.27.27,0,0,1,196.55,103.73Zm-4,0h-2a.28.28,0,0,1-.28-.28.29.29,0,0,1,.28-.28h2a.28.28,0,0,1,.28.28A.27.27,0,0,1,192.52,103.73Zm-4,0h-2a.27.27,0,0,1-.28-.28.28.28,0,0,1,.28-.28h2a.29.29,0,0,1,.28.28A.28.28,0,0,1,188.5,103.73Zm-4,0h-2a.28.28,0,0,1-.28-.28.29.29,0,0,1,.28-.28h2a.28.28,0,0,1,.28.28A.27.27,0,0,1,184.47,103.73Zm-4,0h-2a.27.27,0,0,1-.28-.28.28.28,0,0,1,.28-.28h2a.29.29,0,0,1,.28.28A.28.28,0,0,1,180.45,103.73Zm-4,0h-2a.27.27,0,0,1-.27-.28.28.28,0,0,1,.27-.28h2a.28.28,0,0,1,.27.28A.27.27,0,0,1,176.43,103.73Zm-4,0h-2a.28.28,0,0,1-.28-.28.29.29,0,0,1,.28-.28h2a.28.28,0,0,1,.28.28A.27.27,0,0,1,172.4,103.73Zm-4,0h-2a.27.27,0,0,1-.28-.28.28.28,0,0,1,.28-.28h2a.29.29,0,0,1,.28.28A.28.28,0,0,1,168.38,103.73Zm-4,0h-2a.28.28,0,0,1-.28-.28.29.29,0,0,1,.28-.28h2a.28.28,0,0,1,.28.28A.27.27,0,0,1,164.35,103.73Zm-4,0h-2a.28.28,0,0,1-.28-.28.29.29,0,0,1,.28-.28h2a.29.29,0,0,1,.28.28A.28.28,0,0,1,160.33,103.73Zm-4,0h-2a.27.27,0,0,1-.27-.28.28.28,0,0,1,.27-.28h2a.28.28,0,0,1,.27.28A.27.27,0,0,1,156.31,103.73Zm-4,0h-2a.28.28,0,0,1-.28-.28.29.29,0,0,1,.28-.28h2a.28.28,0,0,1,.28.28A.27.27,0,0,1,152.28,103.73Zm-4,0h-2a.27.27,0,0,1-.28-.28.28.28,0,0,1,.28-.28h2a.29.29,0,0,1,.28.28A.28.28,0,0,1,148.26,103.73Zm-4,0h-2a.28.28,0,0,1-.28-.28.29.29,0,0,1,.28-.28h2a.28.28,0,0,1,.27.28A.27.27,0,0,1,144.24,103.73Zm-4,0h-2a.28.28,0,0,1-.28-.28.29.29,0,0,1,.28-.28h2a.29.29,0,0,1,.28.28A.28.28,0,0,1,140.21,103.73Zm-4,0h-2a.27.27,0,0,1-.28-.28.28.28,0,0,1,.28-.28h2a.29.29,0,0,1,.28.28A.28.28,0,0,1,136.19,103.73Zm-4,0h-2a.28.28,0,0,1-.28-.28.29.29,0,0,1,.28-.28h2a.28.28,0,0,1,.28.28A.27.27,0,0,1,132.16,103.73Zm-4,0h-2a.27.27,0,0,1-.28-.28.28.28,0,0,1,.28-.28h2a.29.29,0,0,1,.28.28A.28.28,0,0,1,128.14,103.73Zm-4,0h-2a.28.28,0,0,1-.28-.28.29.29,0,0,1,.28-.28h2a.28.28,0,0,1,.28.28A.27.27,0,0,1,124.11,103.73Zm-4,0h-2a.28.28,0,0,1-.28-.28.29.29,0,0,1,.28-.28h2a.29.29,0,0,1,.28.28A.28.28,0,0,1,120.09,103.73Zm-4,0h-2a.27.27,0,0,1-.28-.28.28.28,0,0,1,.28-.28h2a.29.29,0,0,1,.28.28A.28.28,0,0,1,116.07,103.73Zm-4,0h-2a.28.28,0,0,1-.28-.28.29.29,0,0,1,.28-.28h2a.28.28,0,0,1,.28.28A.27.27,0,0,1,112,103.73Zm-4,0h-2a.27.27,0,0,1-.28-.28.28.28,0,0,1,.28-.28h2a.29.29,0,0,1,.28.28A.28.28,0,0,1,108,103.73Z"/><path class="cls-47" d="M259.92,104.73a.27.27,0,0,1-.28-.28v-.72h-.72a.27.27,0,0,1-.28-.28.28.28,0,0,1,.28-.28h1a.28.28,0,0,1,.27.28v1A.27.27,0,0,1,259.92,104.73Z"/><path class="cls-47" d="M259.92,127.61a.27.27,0,0,1-.28-.27v-1.91a.28.28,0,1,1,.55,0v1.91A.27.27,0,0,1,259.92,127.61Zm0-3.81a.27.27,0,0,1-.28-.28v-1.91a.28.28,0,0,1,.55,0v1.91A.27.27,0,0,1,259.92,123.8Zm0-3.81a.28.28,0,0,1-.28-.28V117.8a.28.28,0,1,1,.55,0v1.91A.28.28,0,0,1,259.92,120Zm0-3.82a.27.27,0,0,1-.28-.28V114a.28.28,0,1,1,.55,0v1.9A.27.27,0,0,1,259.92,116.17Zm0-3.81a.28.28,0,0,1-.28-.28v-1.91a.28.28,0,1,1,.55,0v1.91A.28.28,0,0,1,259.92,112.36Zm0-3.82a.27.27,0,0,1-.28-.27v-1.91a.28.28,0,1,1,.55,0v1.91A.27.27,0,0,1,259.92,108.54Z"/><path class="cls-47" d="M188.29,116.85a5.51,5.51,0,1,1-5.51-5.51A5.51,5.51,0,0,1,188.29,116.85Z"/><rect class="cls-51" x="182.28" y="113.71" width="1" height="6.28"/><rect class="cls-51" x="179.64" y="116.35" width="6.28" height="1"/><path class="cls-47" d="M320.57,229a5.51,5.51,0,1,1-5.51-5.51A5.51,5.51,0,0,1,320.57,229Z"/><rect class="cls-51" x="314.56" y="225.83" width="1" height="6.28"/><rect class="cls-51" x="311.92" y="228.47" width="6.28" height="1"/><path class="cls-47" d="M347.37,143.2h-.62a.28.28,0,0,1,0-.56h.62a2.12,2.12,0,0,0,1.15-.34.29.29,0,0,1,.39.09.28.28,0,0,1-.09.38A2.65,2.65,0,0,1,347.37,143.2Zm-2.62,0h-2a.28.28,0,0,1,0-.56h2a.28.28,0,0,1,0,.56Zm-4,0h-2a.28.28,0,0,1,0-.56h2a.28.28,0,0,1,0,.56Zm-4,0h-2a.28.28,0,0,1,0-.56h2a.28.28,0,0,1,0,.56Zm-4,0h-2a.28.28,0,0,1,0-.56h2a.28.28,0,0,1,0,.56Zm-4,0h-2a.28.28,0,0,1,0-.56h2a.28.28,0,0,1,0,.56Zm-4,0h-2a.28.28,0,0,1,0-.56h2a.28.28,0,0,1,0,.56Zm-4,0h-2a.28.28,0,0,1,0-.56h2a.28.28,0,0,1,0,.56Zm-4,0h-2a.28.28,0,0,1,0-.56h2a.28.28,0,0,1,0,.56Zm-4,0h-2a.28.28,0,0,1,0-.56h2a.28.28,0,0,1,0,.56Zm-4,0h-2a.28.28,0,0,1,0-.56h2a.28.28,0,0,1,0,.56Zm-4,0h-2a.28.28,0,0,1,0-.56h2a.28.28,0,0,1,0,.56Zm-4,0h-2a.28.28,0,0,1,0-.56h2a.28.28,0,0,1,0,.56Zm-4,0h-2a.28.28,0,0,1,0-.56h2a.28.28,0,0,1,0,.56Zm-4,0h-2a.28.28,0,0,1,0-.56h2a.28.28,0,0,1,0,.56Zm-4,0h-2a.28.28,0,0,1,0-.56h2a.28.28,0,0,1,0,.56Zm-4,0h-2a2.76,2.76,0,0,1-1.53-.47.28.28,0,0,1-.07-.39.26.26,0,0,1,.38-.07,2.19,2.19,0,0,0,1.22.37h2a.28.28,0,0,1,0,.56Zm65-2h-.05a.29.29,0,0,1-.23-.32,1.72,1.72,0,0,0,0-.39v-1.56a.28.28,0,0,1,.28-.28.29.29,0,0,1,.28.28v1.56a2.63,2.63,0,0,1-.05.49A.28.28,0,0,1,349.76,141.21Zm-69.42-.08a.28.28,0,0,1-.27-.24,2.6,2.6,0,0,1,0-.4v-1.64a.28.28,0,0,1,.28-.28.29.29,0,0,1,.28.28v1.64a1.67,1.67,0,0,0,0,.32.29.29,0,0,1-.24.32Zm69.46-3.92a.28.28,0,0,1-.28-.28v-2a.28.28,0,0,1,.28-.28.29.29,0,0,1,.28.28v2A.29.29,0,0,1,349.8,137.21Zm-69.48-.08a.27.27,0,0,1-.28-.28v-2a.28.28,0,0,1,.28-.28.29.29,0,0,1,.28.28v2A.28.28,0,0,1,280.32,137.13Zm69.48-3.92a.28.28,0,0,1-.28-.28v-2a.28.28,0,0,1,.28-.28.29.29,0,0,1,.28.28v2A.29.29,0,0,1,349.8,133.21Zm-69.48-.08a.27.27,0,0,1-.28-.28v-2a.28.28,0,0,1,.28-.28.29.29,0,0,1,.28.28v2A.28.28,0,0,1,280.32,133.13Zm69.48-3.92a.28.28,0,0,1-.28-.28v-2a.28.28,0,0,1,.28-.28.29.29,0,0,1,.28.28v2A.29.29,0,0,1,349.8,129.21Zm-69.48-.08a.27.27,0,0,1-.28-.28v-2a.28.28,0,0,1,.28-.28.29.29,0,0,1,.28.28v2A.28.28,0,0,1,280.32,129.13Zm69.48-3.92a.28.28,0,0,1-.28-.28v-2a.28.28,0,0,1,.28-.28.29.29,0,0,1,.28.28v2A.29.29,0,0,1,349.8,125.21Zm-69.48-.08a.27.27,0,0,1-.28-.28v-2a.28.28,0,0,1,.28-.28.29.29,0,0,1,.28.28v2A.28.28,0,0,1,280.32,125.13Zm69.48-3.92a.28.28,0,0,1-.28-.28v-2a.28.28,0,0,1,.28-.28.29.29,0,0,1,.28.28v2A.29.29,0,0,1,349.8,121.21Zm-69.48-.08a.27.27,0,0,1-.28-.28v-2a.28.28,0,0,1,.28-.28.29.29,0,0,1,.28.28v2A.28.28,0,0,1,280.32,121.13Zm69.48-3.92a.28.28,0,0,1-.28-.28v-2a.28.28,0,0,1,.28-.28.29.29,0,0,1,.28.28v2A.29.29,0,0,1,349.8,117.21Zm-69.48-.08a.27.27,0,0,1-.28-.28v-2a.28.28,0,0,1,.28-.28.29.29,0,0,1,.28.28v2A.28.28,0,0,1,280.32,117.13Zm69.48-3.92a.28.28,0,0,1-.28-.28v-2a.28.28,0,0,1,.28-.28.29.29,0,0,1,.28.28v2A.29.29,0,0,1,349.8,113.21Zm-69.48-.08a.27.27,0,0,1-.28-.28v-2a.28.28,0,0,1,.28-.28.29.29,0,0,1,.28.28v2A.28.28,0,0,1,280.32,113.13Zm69.48-3.92a.28.28,0,0,1-.28-.28v-2a.28.28,0,0,1,.28-.28.29.29,0,0,1,.28.28v2A.29.29,0,0,1,349.8,109.21Zm-69.48-.08a.27.27,0,0,1-.28-.28v-2a.28.28,0,0,1,.28-.28.29.29,0,0,1,.28.28v2A.28.28,0,0,1,280.32,109.13Zm69.48-3.92a.28.28,0,0,1-.28-.28v-2a.28.28,0,0,1,.28-.28.29.29,0,0,1,.28.28v2A.29.29,0,0,1,349.8,105.21Zm-69.48-.08a.27.27,0,0,1-.28-.28v-2a.28.28,0,0,1,.28-.28.29.29,0,0,1,.28.28v2A.28.28,0,0,1,280.32,105.13Zm69.24-3.89a.26.26,0,0,1-.25-.15A2.19,2.19,0,0,0,348,100a.27.27,0,0,1-.18-.34.28.28,0,0,1,.35-.19,2.74,2.74,0,0,1,1.64,1.42.28.28,0,0,1-.13.37A.25.25,0,0,1,349.56,101.24Zm-69-.06a.22.22,0,0,1-.13,0,.27.27,0,0,1-.11-.37A2.69,2.69,0,0,1,282,99.41a.28.28,0,0,1,.15.53,2.15,2.15,0,0,0-1.34,1.09A.29.29,0,0,1,280.59,101.18Zm65.51-1.31h-2a.28.28,0,1,1,0-.56h2a.28.28,0,0,1,0,.56Zm-4,0h-2a.28.28,0,1,1,0-.56h2a.28.28,0,0,1,0,.56Zm-4,0h-2a.28.28,0,1,1,0-.56h2a.28.28,0,0,1,0,.56Zm-4,0h-2a.28.28,0,1,1,0-.56h2a.28.28,0,0,1,0,.56Zm-4,0h-2a.28.28,0,1,1,0-.56h2a.28.28,0,0,1,0,.56Zm-4,0h-2a.28.28,0,1,1,0-.56h2a.28.28,0,0,1,0,.56Zm-4,0h-2a.28.28,0,1,1,0-.56h2a.28.28,0,0,1,0,.56Zm-4,0h-2a.28.28,0,1,1,0-.56h2a.28.28,0,0,1,0,.56Zm-4,0h-2a.28.28,0,1,1,0-.56h2a.28.28,0,0,1,0,.56Zm-4,0h-2a.28.28,0,1,1,0-.56h2a.28.28,0,0,1,0,.56Zm-4,0h-2a.28.28,0,1,1,0-.56h2a.28.28,0,0,1,0,.56Zm-4,0h-2a.28.28,0,1,1,0-.56h2a.28.28,0,0,1,0,.56Zm-4,0h-2a.28.28,0,1,1,0-.56h2a.28.28,0,0,1,0,.56Zm-4,0h-2a.28.28,0,1,1,0-.56h2a.28.28,0,0,1,0,.56Zm-4,0h-2a.28.28,0,1,1,0-.56h2a.28.28,0,0,1,0,.56Zm-4,0h-2a.28.28,0,1,1,0-.56h2a.28.28,0,0,1,0,.56Z"/><path class="cls-47" d="M320.57,121.26a5.51,5.51,0,1,1-5.51-5.51A5.51,5.51,0,0,1,320.57,121.26Z"/><rect class="cls-51" x="314.56" y="118.11" width="1" height="6.28"/><rect class="cls-51" x="311.92" y="120.75" width="6.28" height="1"/><path class="cls-52" d="M377.71,195.2V245l-15,9.23L345.4,264.92l-2.08,1.28a2.43,2.43,0,0,1-3.34-.79l-.3-.49L319.8,232.65a2.42,2.42,0,0,1,.79-3.34l42.14-26,12.88-7.94A2.41,2.41,0,0,1,377.71,195.2Z"/><path class="cls-30" d="M361.69,206.25c-.46-2,14.36-6,18.58-6.93s8.74-1.65,9.26.63-3.87,3.6-8.09,4.55S362.14,208.28,361.69,206.25Z"/><path class="cls-30" d="M365.53,205.27c.72,2.36-3.57,3.15-5,3.37-2.4.36-5-2.12-5.13-3s4.95-.71,5.09-1-2.62.14-2.67-.74,3.53-1.33,5-1S365.08,203.8,365.53,205.27Z"/><path class="cls-30" d="M387,201.06c-1.71,1.57-11.77-7.56-15.75-11.76s-6.37-8.2-4.27-10.12,5.88.81,9.71,5.14S388.67,199.48,387,201.06Z"/><path class="cls-53" d="M366.73,179.11c1.85-1,4.35.5,6.86,4.46s7.08,13.56,7.08,13.56l-6.75,3.52s-6.41-11-8.08-14.09S364.21,180.42,366.73,179.11Z"/><path class="cls-30" d="M390.58,276.43l.14,2.89a.76.76,0,0,1-.75.75h-7.8a.73.73,0,0,1-.44-1.32,11.66,11.66,0,0,1,4.35-2.18c.13,0,.13-12.34,1.3-12.35S390.58,276.43,390.58,276.43Z"/><path class="cls-30" d="M376.31,241.51c-2.92-1.44,3.52-18.44,6.81-25.44s7.2-11.89,10.76-10.13,2.05,7.84-1.51,14.71S379.23,243,376.31,241.51Z"/><path class="cls-30" d="M389.72,276.71c-2.78.81-10.73-23.46-12.34-29s-2.9-11.45.21-12.36,5.24,4.77,6.86,10.28S392.49,275.9,389.72,276.71Z"/><path class="cls-30" d="M391.12,242.66c-3.1-1,.85-18.76,3.1-26.15s5.42-12.8,9.21-11.57,3.14,7.46.61,14.77S394.22,243.67,391.12,242.66Z"/><path class="cls-30" d="M405.83,277.19c-2.72,1-11.69-22.9-13.65-28.29s-3.59-11.25-.55-12.35,5.53,4.44,7.48,9.84S408.55,276.2,405.83,277.19Z"/><path class="cls-30" d="M406.47,276.8v2.73a2.73,2.73,0,0,1-1.14,1.55c-2,.84-5.73.34-5.88-.34s.91-2.16,1.75-3.22h0c.54-.68,1-1.18,1-1.18s-1-16.89.16-16.85S406.47,276.8,406.47,276.8Z"/><path class="cls-54" d="M406.47,277.16v2.37a2.73,2.73,0,0,1-1.14,1.55c-2,.84-5.73.34-5.88-.34s.91-2.16,1.75-3.22h0c.4-.35,2.47-.16,2.82,0a7,7,0,0,0,1.33.64A7,7,0,0,0,406.47,277.16Z"/><path class="cls-30" d="M406,208.82l-19.07,10-16.79-30.26-3.09-9.4,7.76-7.66,5.86-1.76a7.06,7.06,0,0,1,8.4,3.71l9.38,22.72Z"/><path class="cls-30" d="M374.66,166.31l3.22,6.16s-.9,1.46-3.94,3.05c-1.65.86-2.42.27-2.42.27l-1.19-2.28Z"/><path class="cls-55" d="M364.51,164.54c-.54.5.3,2.71.41,2.65s-.36-1.94.05-2.48S364.51,164.54,364.51,164.54Z"/><path class="cls-55" d="M362.21,165.84c.56.24,1.09,1.91,1.15,2s-1.14-1.76-1.14-1.76Z"/><path class="cls-56" d="M367.2,163.24l.13.24s-2.63,1.38-2.65,1.37-.22-.18-.17-.31C364.78,163.84,367.2,163.24,367.2,163.24Z"/><path class="cls-56" d="M360.32,166.82l.14.26s1.83-1,1.83-1-.05-.27-.16-.31C361.55,165.53,360.32,166.82,360.32,166.82Z"/><path class="cls-56" d="M367.08,165.39a.6.6,0,0,1-1.06.55.6.6,0,1,1,1.06-.55Z"/><path class="cls-56" d="M367.42,164.67a2.51,2.51,0,0,0-1.25.26,2.68,2.68,0,0,0-.94.88Z"/><path class="cls-56" d="M362.72,167.66a.61.61,0,0,1-.25.81.6.6,0,0,1-.56-1.06A.61.61,0,0,1,362.72,167.66Z"/><path class="cls-56" d="M362.73,167.11a1.27,1.27,0,0,0-1.53.8Z"/><path class="cls-57" d="M365.15,169.79c.53-.28.93-.55,1-.4s-.26.54-.79.82-1.05.32-1.13.18S364.62,170.06,365.15,169.79Z"/><path class="cls-55" d="M366.28,172c.39-.21.69-.4.74-.3s-.13.52-.52.72a.89.89,0,0,1-.89,0C365.56,172.29,365.89,172.16,366.28,172Z"/><path class="cls-55" d="M364.05,172a.12.12,0,0,0-.07.15.13.13,0,0,0,.16.1,8,8,0,0,0,1.93-.68,8.68,8.68,0,0,0,1.7-1.21.14.14,0,0,0,0-.2.14.14,0,0,0-.19,0,7.15,7.15,0,0,1-3.51,1.83Z"/><path class="cls-30" d="M373,161.33c.1.24.21.45.3.66s.08.14.12.22c2.06,3.58,1.76,8.72-1.5,11.1l-.07.05-.12.07c-.71.49-3.33,2.14-4.91,1.56a10.46,10.46,0,0,1-5-4.14,24.36,24.36,0,0,1-1.09-2.81c-.27-.51-1.38-2-1.74-2.66-1.73-3.26-1.22-7.64,2.68-9.68C367.52,152.65,371.1,157.32,373,161.33Z"/><path class="cls-58" d="M370.46,163.08c-1-1.2-2.31-1.13-2.88-1.87a16.92,16.92,0,0,0-2-2.46c-.73-.63-3.55,1.07-4.42,1.75a9,9,0,0,1-3.84,1.81c-1,0-2.68-1.65-2.41-2.91l.54.17a6.56,6.56,0,0,1,1.92-3.34l.14,1a41.68,41.68,0,0,1,5.54-3.21,6.69,6.69,0,0,1,3.67.07,2.26,2.26,0,0,1,3.17-.13c1,.8,5.53,4.91,5.25,13.38l-3.85-4.49Z"/><path class="cls-30" d="M371.29,162.28c.41-.35,1.31-1.31,1.95.43,1.12,3-.62,3.67-.62,3.67-.11-.45-.25-1.09-.47-1.8-.59,0-.2-.68-.35-1a.54.54,0,0,0-.08-.22A11.24,11.24,0,0,0,371.29,162.28Z"/><path class="cls-33" d="M371.72,163.34s.26-.76.75-.77.69,1,.66,1.74-.35.92-.48.8.38-.79,0-.91-.65,0-.71-.2S371.72,163.34,371.72,163.34Z"/><path class="cls-59" d="M369.63,161.64c.7,1,2.46,4.71,2.46,4.71l.46-.26-1.26-4.25Z"/><path class="cls-33" d="M369.78,174.53c1.81-.84,3.27-3.81,3.51-4.94a9,9,0,0,0-.47-3.32,1.18,1.18,0,0,0,.68-1,2.39,2.39,0,0,1,.22,1.38c-.19.48-.38.67-.34.92s1.08,3.24,0,4.79S369.78,174.53,369.78,174.53Z"/><path class="cls-60" d="M405.11,205.74s1.16,1.09,1.61,5.07-8.47,26-8.72,26.74,4.87,16.35,6.41,23.53,2.5,14.11,2.5,14.11a8.82,8.82,0,0,1-5.77.38s-11.61-29.3-12.18-34,2.5-18.91,2.5-18.91S383.18,237,383.06,238s5.7,20,6.86,26.67,1.46,10.85,1.46,10.85a7.58,7.58,0,0,1-6-.32s-10.63-31.37-10.63-35.15,3-11.74,4.55-15.9a60,60,0,0,1,3.53-7.7Z"/><path class="cls-61" d="M374.07,172.24l.33,5.55-2.82-1.89-1.43-.23s-2.87,2.66-3.67,3.56,3.5,11,6.32,16.19,10,21,10,21,.64,1.83,9.49-1.38a31.35,31.35,0,0,0,13.47-9.33s-14.3-27.31-17.32-31.29-4.35-5.74-5.46-5.55-5.67,1.4-5.67,1.4Z"/><rect class="cls-50" x="324.72" y="199.14" width="69.48" height="43.33" rx="2.43" transform="translate(-62.4 221.4) rotate(-31.64)"/><rect class="cls-2" x="362.01" y="196.36" width="24.84" height="30.2" transform="translate(-55.27 227.86) rotate(-31.64)"/><rect class="cls-2" x="326.19" y="215.03" width="27.84" height="1.77" transform="translate(-62.71 210.51) rotate(-31.64)"/><rect class="cls-2" x="328.33" y="218.51" width="27.84" height="1.77" transform="translate(-64.22 212.16) rotate(-31.64)"/><rect class="cls-2" x="330.48" y="221.99" width="27.84" height="1.77" transform="translate(-65.73 213.8) rotate(-31.64)"/><rect class="cls-2" x="332.62" y="225.48" width="27.84" height="1.77" transform="translate(-67.24 215.44) rotate(-31.64)"/><rect class="cls-2" x="334.77" y="228.96" width="27.84" height="1.77" transform="translate(-68.74 217.09) rotate(-31.64)"/><rect class="cls-2" x="336.92" y="232.44" width="27.84" height="1.77" transform="translate(-70.25 218.73) rotate(-31.64)"/><rect class="cls-2" x="341.84" y="241.62" width="19.38" height="1.77" transform="translate(-74.97 220.46) rotate(-31.64)"/><rect class="cls-2" x="339.06" y="235.92" width="27.84" height="1.77" transform="translate(-71.76 220.37) rotate(-31.64)"/><path class="cls-62" d="M390.72,277v2.71a.5.5,0,0,1-.5.49h-8.73a.79.79,0,0,1-.48-1.42,34,34,0,0,1,4.81-2.62c.36.32.9,1.29,1.52,1.41A18.09,18.09,0,0,0,390.72,277Z"/><polygon class="cls-63" points="369.89 174.75 371.58 175.91 371.53 175.8 370.71 174.24 370.35 174.37 369.89 174.75"/><path class="cls-64" d="M374.07,172.24l2.18,2.08c.76-1.73,1.86-3.86,1.86-3.86l-1.86-1.11Z"/><polygon class="cls-65" points="370.15 175.67 370.61 177.26 371.6 175.94 371.58 175.91 369.89 174.75 370.15 175.67"/><path class="cls-30" d="M396.53,195.55c-2.07,1.11-9.62-10.32-12.47-15.4s-4.18-9.61-1.65-11,5.55,2.26,8.21,7.44S398.6,194.44,396.53,195.55Z"/><path class="cls-30" d="M378.65,214.8c-1.63-1.3,7.49-13.62,10.19-17s5.81-6.75,7.63-5.29-.78,5.22-3.48,8.6S380.27,216.1,378.65,214.8Z"/><path class="cls-30" d="M381.05,211.64c2,1.39-.83,4.69-1.85,5.79-1.65,1.77-3.57-.08-4.27-.71s2-1.76,1.94-2-2.16,1.4-2.75.73,1.93-3.23,3.33-3.87S379.77,210.77,381.05,211.64Z"/><path class="cls-66" d="M382.6,169c1.85-1,4.36.5,6.87,4.45s7.08,13.56,7.08,13.56l-6.75,3.52s-6.41-11-8.08-14.09S380.08,170.35,382.6,169Z"/><path class="cls-30" d="M171.39,90c-2.17.23-4.46-15.63-4.94-20.12s-.66-9.28,1.77-9.54,3.26,4.45,3.75,8.95S173.55,89.8,171.39,90Z"/><path class="cls-30" d="M168.57,88.81c.47-1.53,1-2.35,2.57-2.75,2.49-.63,3.4,4.51,3.56,6.06.15,1.38-1.64,4.4-2.62,4.51s-1.55-5.15-1.84-5.19-.34.23-.38.59h-1.44A9.22,9.22,0,0,1,168.57,88.81Z"/><rect class="cls-52" x="85.8" y="81.99" width="159.57" height="27.24" transform="translate(29.17 -38.38) rotate(14.48)"/><rect class="cls-4" x="85.8" y="74.52" width="159.57" height="27.24" transform="matrix(0.97, 0.25, -0.25, 0.97, 27.31, -38.61)"/><path class="cls-2" d="M112.83,74.51A9.53,9.53,0,1,1,106,62.9,9.52,9.52,0,0,1,112.83,74.51Z"/><rect class="cls-2" x="120.54" y="84.32" width="117.79" height="2.08" transform="translate(27.05 -42.17) rotate(14.48)"/><rect class="cls-2" x="119" y="90.28" width="117.79" height="2.08" transform="translate(28.49 -41.59) rotate(14.48)"/><rect class="cls-2" x="200.76" y="106.83" width="33.15" height="2.08" transform="translate(33.89 -50.93) rotate(14.48)"/><rect class="cls-2" x="118.13" y="90.94" width="75.31" height="2.08" transform="translate(27.95 -36.04) rotate(14.48)"/><path class="cls-30" d="M124.18,88.51c2.14.38,5.51-15.29,6.3-19.74s1.28-9.21-1.12-9.63-3.56,4.22-4.35,8.67S122,88.14,124.18,88.51Z"/><path class="cls-30" d="M127.57,87.2c-.46-1.53-1-2.35-2.56-2.75-2.5-.63-3.56,4.5-3.57,6.06,0,1.9,2.54,2,3.52,2.13s.65-2.77.94-2.81-.05,2.16.31,2.21C127.43,92.18,127.8,88,127.57,87.2Z"/><rect class="cls-2" x="287.93" y="25.47" width="33.68" height="33.68" rx="2.97"/><polyline class="cls-2" points="299.27 58.84 304.73 64.31 310.27 58.77"/><path class="cls-50" d="M295.47,41.63c1.83,0,2.08-1,2.08-1.9a15.77,15.77,0,0,0-.2-2.16,15.36,15.36,0,0,1-.21-2.13c0-2.36,1.54-3.36,3.72-3.36h.54v1.41h-.46c-1.51,0-2,.82-2,2.21a11.56,11.56,0,0,0,.18,1.82,11.22,11.22,0,0,1,.18,1.95,2.45,2.45,0,0,1-1.84,2.77v0c1.15.29,1.87,1.16,1.84,2.8a10.86,10.86,0,0,1-.18,1.95,11.93,11.93,0,0,0-.18,1.85c0,1.44.59,2.23,2,2.23h.46v1.42h-.54c-2.13,0-3.72-.93-3.72-3.52a15.23,15.23,0,0,1,.21-2.11,14.5,14.5,0,0,0,.2-2.07c0-.8-.25-1.9-2.08-1.9Z"/><path class="cls-50" d="M314.06,42.94c-1.82,0-2.08,1.1-2.08,1.9a13.21,13.21,0,0,0,.21,2.07,15.2,15.2,0,0,1,.2,2.11c0,2.59-1.62,3.52-3.72,3.52h-.54V51.12h.44c1.43,0,2.05-.79,2.05-2.23a15,15,0,0,0-.18-1.85,11.77,11.77,0,0,1-.21-1.95c0-1.64.72-2.51,1.85-2.8v0a2.5,2.5,0,0,1-1.85-2.77,12.25,12.25,0,0,1,.21-1.95,14.55,14.55,0,0,0,.18-1.82c0-1.39-.54-2.18-2-2.21h-.46V32.08h.51c2.18,0,3.75,1,3.75,3.36a15.34,15.34,0,0,1-.2,2.13,14.36,14.36,0,0,0-.21,2.16c0,.9.26,1.9,2.08,1.9Z"/><path class="cls-30" d="M62.18,257.81a.07.07,0,0,1,0,.06c-.32.55-.68,1.11-1.06,1.68l-5.9-2.13a26.06,26.06,0,0,1,4-4.29c1.37-1.07,2.63-1.51,3.61-.77C64.15,253.36,63.54,255.43,62.18,257.81Z"/><path class="cls-30" d="M60.69,258.84c-2.63-.49-1.21-16-.11-22.53s3.11-11.49,6.32-10.89,3.31,5.94,2,12.44S63.31,259.33,60.69,258.84Z"/><path class="cls-67" d="M70,241.11A96.61,96.61,0,0,1,64.19,256a31.82,31.82,0,0,1-2.25,3.9l-.86-.32-5.9-2.13-.63-.22c2-2.88,3.5-5.11,3.5-5.11a140.92,140.92,0,0,1,3.61-22.71,6.94,6.94,0,0,1,3-4.63,5.48,5.48,0,0,1,1.09-.45c3.42-1,5.79,2.75,6,5.92C72,233.9,71,237.59,70,241.11Z"/><polyline class="cls-68" points="47.34 254.59 54.55 257.2 55.18 257.42 61.08 259.55 61.94 259.87 67.18 261.76"/><path class="cls-30" d="M84.41,277.14l-20.26-8.51L65.49,237l-.15-11.75,10.81-4.41,6.95,1c4,.56,5.94,3.54,6,7.53,0,0,.88,21.57-.23,28.52A143.89,143.89,0,0,1,84.41,277.14Z"/><path class="cls-30" d="M77.58,214.24l1.83,9.44A8.25,8.25,0,0,1,73.77,227c-2.11.3-2.72-.63-2.72-.63l-.9-6Z"/><path class="cls-55" d="M67.28,208.46c-.77.34-.71,3-.57,3s.35-2.23,1-2.66S67.28,208.46,67.28,208.46Z"/><path class="cls-55" d="M64.29,209c.52.47.45,2.48.46,2.66s-.55-2.34-.55-2.34Z"/><path class="cls-56" d="M70.68,208.08l0,.31s-3.36.5-3.38.48-.17-.28-.06-.41C67.84,207.81,70.68,208.08,70.68,208.08Z"/><path class="cls-56" d="M61.88,209.33l0,.34s2.35-.35,2.36-.38,0-.31-.06-.4C63.7,208.41,61.88,209.33,61.88,209.33Z"/><path class="cls-56" d="M69.73,210.36a.69.69,0,1,1-.78-.58A.69.69,0,0,1,69.73,210.36Z"/><path class="cls-56" d="M70.38,209.71a2.75,2.75,0,0,0-2.81.4Z"/><path class="cls-56" d="M64.15,211.16a.69.69,0,0,1-.58.77.68.68,0,1,1,.58-.77Z"/><path class="cls-56" d="M64.38,210.57a1.7,1.7,0,0,0-1-.25,1.63,1.63,0,0,0-.92.53Z"/><path class="cls-57" d="M66,214.38c.68-.1,1.22-.23,1.24,0s-.49.49-1.16.59-1.26,0-1.29-.23S65.29,214.48,66,214.38Z"/><path class="cls-55" d="M66.37,217.16c.49-.08.89-.18.91,0s-.34.5-.84.58-.94-.19-1-.32S65.87,217.23,66.37,217.16Z"/><path class="cls-55" d="M63.92,216.38a.17.17,0,0,0-.13.14.16.16,0,0,0,.14.17,9,9,0,0,0,2.35,0,10.39,10.39,0,0,0,2.3-.66.16.16,0,1,0-.13-.29,9.36,9.36,0,0,1-2.21.64,8.86,8.86,0,0,1-2.27,0Z"/><path class="cls-30" d="M77.44,214.69a8.65,8.65,0,0,1-5.51,6.07l-.1,0-.15,0c-1,.26-4.42,1-5.91-.18a12.1,12.1,0,0,1-3.8-6.38,28.34,28.34,0,0,1-.11-3.46c-.09-.65-.74-2.64-.88-3.53a9.11,9.11,0,0,1,.18-3.64,7.52,7.52,0,0,1,6.41-5.8c7.49-1.07,9.58,5.33,10.08,10.39,0,.29,0,.56.07.82,0,.09,0,.19,0,.28A11.25,11.25,0,0,1,77.44,214.69Z"/><path class="cls-69" d="M77.72,215l-2.41-5.76-1,0c-.52-1.52-2-2.05-2.89-3.27a4.15,4.15,0,0,1-.53-1.66c-.6-2.22-2.47-1.66-4.28-1.25-1,.26-2.07.78-3.13.94a4.73,4.73,0,0,1-2.27-.28c-.28-1.72,2.94-5.66,6.47-6.17a7.73,7.73,0,0,1,6.85,2,13.18,13.18,0,0,1,3.07,7C78,209.09,78.52,212.37,77.72,215Z"/><path class="cls-30" d="M75.47,208.6c.57-.22,1.91-.91,2,1.21.07,3.66-2.07,3.73-2.07,3.73.05-.52.13-1.27.17-2.13-.62-.26,0-.81,0-1.23a.77.77,0,0,0,0-.26C75.53,209.49,75.5,209.07,75.47,208.6Z"/><path class="cls-33" d="M75.53,209.92s.57-.74,1.1-.55.35,1.39.05,2.13-.72.86-.83.68.72-.71.36-1-.68-.3-.68-.49Z"/><path class="cls-69" d="M73.91,207.28a18.36,18.36,0,0,1,.5,2.95c.08.54.09,1.12.22,1.65.07.27.12,1.2.45,1.28.49.14.43-2.48.44-2.81a11.49,11.49,0,0,0,.11-2.22Z"/><path class="cls-33" d="M69.17,221.27c2.28-.22,5-2.87,5.68-4a10.26,10.26,0,0,0,.75-3.77,1.38,1.38,0,0,0,1.1-.77,2.75,2.75,0,0,1-.29,1.58c-.38.45-.66.57-.72.86s-.06,3.92-1.8,5.19S69.17,221.27,69.17,221.27Z"/><path class="cls-70" d="M86.17,279.15c-18-1-26.21-6.3-26.21-6.3s4.17-24.88,4.18-29.18-1.28-13.87-.07-16.81a5.68,5.68,0,0,1,5.18-3.66s.07-.56,1.34-.78l.06,1.47,2,2.78,1.88-4.28.48-1.12.38,1c1.48-.19,3.15-.75,4.68-.88a21.89,21.89,0,0,1,6.15.33c3.78.81,3.27,11.29,4,26.34C91.47,274.4,86.17,279.15,86.17,279.15Z"/><polygon class="cls-71" points="69.45 221.87 70.66 223.88 70.65 223.75 70.56 221.73 70.12 221.69 69.45 221.87"/><path class="cls-72" d="M75,221.27l1.26,3.21c1.63-1.43,3.81-3.11,3.81-3.11l-1.15-2.09Z"/><polygon class="cls-73" points="69.28 222.95 68.99 224.83 70.66 223.93 70.66 223.88 69.45 221.87 69.28 222.95"/><path class="cls-30" d="M55,310.19l.16,3.32a.85.85,0,0,1-.86.85H45.39a.84.84,0,0,1-.51-1.51,13.37,13.37,0,0,1,5-2.5c.16,0,1.43-28,2.78-28S55,310.19,55,310.19Z"/><path class="cls-30" d="M52.82,311.4c-3.31,0-4.22-29.26-4.22-35.84S49.11,262,52.82,262,57,269,57,275.56,56.13,311.4,52.82,311.4Z"/><path class="cls-45" d="M55.18,310.8v3.11a.56.56,0,0,1-.56.57h-10a.9.9,0,0,1-.55-1.63,38.21,38.21,0,0,1,5.51-3c.41.36,1,1.47,1.75,1.61A20.33,20.33,0,0,0,55.18,310.8Z"/><path class="cls-30" d="M69.82,311.62v3.13a3.17,3.17,0,0,1-1.3,1.78c-2.25,1-6.57.39-6.74-.39s1-2.49,2-3.7h0c.62-.78,1.14-1.35,1.14-1.35s1.22-27.17,2.49-27.13S69.82,311.62,69.82,311.62Z"/><path class="cls-30" d="M67.62,312.85c-3.3.31-6.33-28.77-6.93-35.32s-.73-13.51,3-13.85,4.84,6.53,5.44,13.08S70.92,312.55,67.62,312.85Z"/><path class="cls-45" d="M69.82,312v2.72a3.17,3.17,0,0,1-1.3,1.78c-2.25,1-6.57.39-6.74-.39s1-2.49,2-3.7h0c.46-.4,2.84-.18,3.24,0a8.7,8.7,0,0,0,1.52.73A8.71,8.71,0,0,0,69.82,312Z"/><path class="cls-45" d="M49.33,308.69a7,7,0,0,0,7,.47s2-32.68,2-34.31,3.37,6.49,5.78,7.56,14.54.6,19.46.6,3.36-10.84-4-15.9S57.46,256.3,52.82,257s-5,9.16-5,15.52S49.33,308.69,49.33,308.69Z"/><path class="cls-74" d="M84.74,264.38s-17.12-6.74-21.42-6.28-5.59,3.25-4.78,12.8,4.82,39.26,4.82,39.26,4.56,1,7.79,0c0,0,0-33.6,0-34.53s2.84,4.74,9,7,9.23-4,9.62-9.94S84.74,264.38,84.74,264.38Z"/><rect class="cls-2" x="397.08" y="99.66" width="25.14" height="25.14" rx="2" transform="translate(521.88 -297.42) rotate(90)"/><polyline class="cls-2" points="413.75 124.8 409.68 128.87 405.54 124.74"/><path class="cls-50" d="M413.74,109.62l4.71,2.12v1.45l-4.71,2.11-.51-1.19,3.92-1.65-3.92-1.67Z"/><path class="cls-50" d="M408.79,106.6l2.86,10.94-1.36.32-2.85-11Z"/><path class="cls-50" d="M405.34,109.62l.51,1.17-3.91,1.67,3.91,1.65-.51,1.19-4.71-2.11v-1.45Z"/><rect class="cls-2" x="19.58" y="121.14" width="25.14" height="25.14" rx="2" transform="translate(165.86 101.57) rotate(90)"/><polyline class="cls-2" points="36.25 146.28 32.17 150.36 28.04 146.22"/><path class="cls-4" d="M35.47,140.76a8.7,8.7,0,0,1-3.87.76A6.43,6.43,0,0,1,25,134.85a7.82,7.82,0,0,1,7.92-8.07,6,6,0,0,1,6.39,6.12c0,3.09-1.74,5-4,5a1.66,1.66,0,0,1-1.82-1.63h0a3.12,3.12,0,0,1-2.74,1.63c-1.37,0-2.37-1-2.37-2.75a4.84,4.84,0,0,1,5-4.93,6.06,6.06,0,0,1,2.52.52l-.64,3.92c-.21,1.25-.06,1.82.53,1.84.91,0,2.06-1.14,2.06-3.57a4.67,4.67,0,0,0-5.07-4.89c-3.23,0-6.07,2.54-6.07,6.58,0,3.54,2.26,5.55,5.42,5.55a7,7,0,0,0,3.07-.68ZM33.59,132a2.83,2.83,0,0,0-.66-.08,2.79,2.79,0,0,0-2.5,3c0,.8.36,1.31,1.06,1.31s1.61-1,1.8-2.23Z"/><path class="cls-30" d="M103.4,249.54c-2.13,1.65-12.85-9.82-17-15s-6.56-10.06-4-12.07,6.7,1.49,10.7,6.85S105.53,247.89,103.4,249.54Z"/><path class="cls-30" d="M72.9,258.16c-.75-2.27,15.73-8.37,20.44-9.92s9.8-2.83,10.64-.29-4,4.53-8.74,6.07S73.64,260.43,72.9,258.16Z"/><path class="cls-30" d="M77.2,257.62c.14-2.09-4-2-5.46-1.87-3.56.21-4.5,2.73-4.44,3.54s5.12-.46,5.22-.24c.21.42-2.39.56-2.26,1.15.16.75,3.59.45,4.89-.13S77.11,258.93,77.2,257.62Z"/><path class="cls-75" d="M81.34,223.25c2.53-3.09,6.31-1.78,9.3,1.76s15.32,18.47,14.53,24.42c-.55,4.19-25.32,9.07-26.72,9.36,0,0-1.83-4.13-1.8-4.17.83-1.18,17.57-8.58,17.57-8.58s-7-8.52-9.63-12S78.76,226.4,81.34,223.25Z"/><polygon class="cls-48" points="74.76 261.1 80.08 260.98 80.08 259.93 73.46 259.94 58.48 258.78 68.5 260.88 74.76 261.1"/><polygon class="cls-42" points="74.76 261.1 45.84 261.1 41.72 242.47 70.64 242.47 74.76 261.1"/><path class="cls-2" d="M65.32,73.1A12,12,0,0,0,63.83,68l1.48-.82a13.63,13.63,0,0,0-2.86-3.56l-1.12,1.27a11.84,11.84,0,0,0-4.66-2.56l.47-1.62h0a13.56,13.56,0,0,0-3.71-.52c-.27,0-.54,0-.8,0l.1,1.69a11.87,11.87,0,0,0-5.1,1.48l-.82-1.47a13.59,13.59,0,0,0-3.56,2.85l1.26,1.12a11.84,11.84,0,0,0-2.56,4.66l-1.62-.47v0a13.68,13.68,0,0,0-.52,3.72c0,.27,0,.53,0,.79l1.69-.1A12,12,0,0,0,43,79.61l-1.48.82A13.8,13.8,0,0,0,44.34,84l1.13-1.27a11.78,11.78,0,0,0,4.64,2.57l-.46,1.62h0a13.68,13.68,0,0,0,3.72.52c.27,0,.55,0,.82,0l-.1-1.69a12,12,0,0,0,5.09-1.49l.83,1.47a13.75,13.75,0,0,0,3.56-2.85l-1.27-1.13a11.86,11.86,0,0,0,2.55-4.65l1.62.46h0A13.68,13.68,0,0,0,67,73.81q0-.41,0-.81ZM50.44,84.28h0l.09-.3Zm9.91-8.5A7.23,7.23,0,0,1,53.41,81a7.1,7.1,0,0,1-2-.28,7.21,7.21,0,0,1-5.26-6.94,7.48,7.48,0,0,1,.27-2,7.23,7.23,0,0,1,6.95-5.26,7.1,7.1,0,0,1,2,.28,7.21,7.21,0,0,1,5.26,6.94A7.1,7.1,0,0,1,60.35,75.78Z"/><path class="cls-2" d="M180.3,39.73a2.35,2.35,0,1,0,2.34,2.35A2.35,2.35,0,0,0,180.3,39.73Zm-5.48-3.4,2.06,2.16a4.93,4.93,0,0,1,6.84,0l2.07-2.15a7.9,7.9,0,0,0-11,0Zm5.53-14.77a20.48,20.48,0,0,0-14.19,5.66l2.06,2.17a17.51,17.51,0,0,1,24.21.06l2.08-2.15A20.46,20.46,0,0,0,180.35,21.56Zm-9.8,10.27L172.61,34A11.13,11.13,0,0,1,188,34l2.07-2.15a14.11,14.11,0,0,0-19.54-.06Z"/><polygon class="cls-48" points="74.76 261.1 70.64 242.47 71.39 242.47 75.51 261.1 74.76 261.1"/><path class="cls-2" d="M205.33,44.35h-4.91A11.25,11.25,0,0,0,189.16,55.6v6L192.94,57a13.21,13.21,0,0,1,10.25-4.88h2.14Z"/><polygon class="cls-2" points="214.42 48.25 205.33 41.41 205.33 55.1 214.42 48.25"/><path class="cls-2" d="M410.15,317.42H372.78a3.21,3.21,0,0,1-3.19-3.19h0a3.2,3.2,0,0,1,3.19-3.19h37.37a3.2,3.2,0,0,1,3.19,3.19h0A3.21,3.21,0,0,1,410.15,317.42Z"/><path class="cls-2" d="M109.93,317.42h-7a3.21,3.21,0,0,1-3.19-3.19h0a3.2,3.2,0,0,1,3.19-3.19h7a3.19,3.19,0,0,1,3.19,3.19h0A3.2,3.2,0,0,1,109.93,317.42Z"/></g></g></g></svg>